<svg xmlns="http://www.w3.org/2000/svg" viewBox="0 0 500 500"><g id="freepik--background-complete--inject-37"><polygon points="432.3 142.81 431.1 142.81 431.1 142.01 431.5 142.01 431.5 141.61 432.3 141.61 432.3 142.81" style="fill:#ebebeb"></polygon><path d="M429.49,142.81h-1.6V142h1.6Zm-3.2,0h-1.6V142h1.6Zm-3.2,0h-1.61V142h1.61Zm-3.21,0h-1.6V142h1.6Zm-3.2,0h-1.6V142h1.6Zm-3.21,0h-1.6V142h1.6Zm-3.2,0h-1.6V142h1.6Zm-3.2,0h-1.61V142h1.61Zm-3.21,0h-1.6V142h1.6Zm-3.2,0h-1.6V142h1.6Zm-3.21,0h-1.6V142h1.6Zm-3.2,0h-1.6V142h1.6Zm-3.2,0h-1.61V142h1.61Zm-3.21,0h-1.6V142h1.6Zm-3.2,0H383V142h1.6Zm-3.21,0h-1.6V142h1.6Zm-3.2,0h-1.6V142h1.6Z" style="fill:#ebebeb"></path><polygon points="375.03 142.81 373.82 142.81 373.82 141.61 374.63 141.61 374.63 142.01 375.03 142.01 375.03 142.81" style="fill:#ebebeb"></polygon><path d="M374.63,140h-.81v-1.6h.81Zm0-3.21h-.81v-1.6h.81Zm0-3.2h-.81V132h.81Zm0-3.2h-.81v-1.61h.81Zm0-3.21h-.81v-1.6h.81Zm0-3.2h-.81v-1.6h.81Zm0-3.21h-.81v-1.6h.81Zm0-3.2h-.81V116h.81Zm0-3.2h-.81v-1.61h.81Zm0-3.21h-.81v-1.6h.81Zm0-3.2h-.81v-1.6h.81Zm0-3.21h-.81v-1.6h.81Zm0-3.2h-.81V100h.81Zm0-3.2h-.81V96.75h.81Zm0-3.21h-.81v-1.6h.81Zm0-3.2h-.81v-1.6h.81Zm0-3.21h-.81v-1.6h.81Z" style="fill:#ebebeb"></path><polygon points="374.63 85.54 373.82 85.54 373.82 84.34 375.03 84.34 375.03 85.14 374.63 85.14 374.63 85.54" style="fill:#ebebeb"></polygon><path d="M429.49,85.14h-1.6v-.8h1.6Zm-3.2,0h-1.6v-.8h1.6Zm-3.2,0h-1.61v-.8h1.61Zm-3.21,0h-1.6v-.8h1.6Zm-3.2,0h-1.6v-.8h1.6Zm-3.21,0h-1.6v-.8h1.6Zm-3.2,0h-1.6v-.8h1.6Zm-3.2,0h-1.61v-.8h1.61Zm-3.21,0h-1.6v-.8h1.6Zm-3.2,0h-1.6v-.8h1.6Zm-3.21,0h-1.6v-.8h1.6Zm-3.2,0h-1.6v-.8h1.6Zm-3.2,0h-1.61v-.8h1.61Zm-3.21,0h-1.6v-.8h1.6Zm-3.2,0H383v-.8h1.6Zm-3.21,0h-1.6v-.8h1.6Zm-3.2,0h-1.6v-.8h1.6Z" style="fill:#ebebeb"></path><polygon points="432.3 85.54 431.5 85.54 431.5 85.14 431.1 85.14 431.1 84.34 432.3 84.34 432.3 85.54" style="fill:#ebebeb"></polygon><path d="M432.3,140h-.8v-1.6h.8Zm0-3.21h-.8v-1.6h.8Zm0-3.2h-.8V132h.8Zm0-3.2h-.8v-1.61h.8Zm0-3.21h-.8v-1.6h.8Zm0-3.2h-.8v-1.6h.8Zm0-3.21h-.8v-1.6h.8Zm0-3.2h-.8V116h.8Zm0-3.2h-.8v-1.61h.8Zm0-3.21h-.8v-1.6h.8Zm0-3.2h-.8v-1.6h.8Zm0-3.21h-.8v-1.6h.8Zm0-3.2h-.8V100h.8Zm0-3.2h-.8V96.75h.8Zm0-3.21h-.8v-1.6h.8Zm0-3.2h-.8v-1.6h.8Zm0-3.2h-.8V87.14h.8Z" style="fill:#ebebeb"></path><rect x="370.63" y="138.82" width="7.19" height="7.19" style="fill:#fff"></rect><path d="M378.22,146.4h-8v-8h8Zm-7.19-.8h6.39v-6.38H371Z" style="fill:#ebebeb"></path><rect x="370.66" y="109.98" width="7.19" height="7.19" style="fill:#fff"></rect><path d="M378.22,117.57h-8v-8h8Zm-7.19-.8h6.39v-6.39H371Z" style="fill:#ebebeb"></path><rect x="370.66" y="81.15" width="7.19" height="7.19" style="fill:#fff"></rect><path d="M378.22,88.73h-8v-8h8Zm-7.19-.8h6.39V81.55H371Z" style="fill:#ebebeb"></path><rect x="428.33" y="138.82" width="7.19" height="7.19" style="fill:#fff"></rect><path d="M435.89,146.4h-8v-8h8Zm-7.19-.8h6.39v-6.38H428.7Z" style="fill:#ebebeb"></path><rect x="428.33" y="109.98" width="7.19" height="7.19" style="fill:#fff"></rect><path d="M435.89,117.57h-8v-8h8Zm-7.19-.8h6.39v-6.39H428.7Z" style="fill:#ebebeb"></path><rect x="428.33" y="81.15" width="7.19" height="7.19" style="fill:#fff"></rect><path d="M435.89,88.73h-8v-8h8Zm-7.19-.8h6.39V81.55H428.7Z" style="fill:#ebebeb"></path><rect x="399.5" y="81.15" width="7.19" height="7.19" style="fill:#fff"></rect><path d="M407.05,88.73h-8v-8h8Zm-7.18-.8h6.38V81.55h-6.38Z" style="fill:#ebebeb"></path><rect x="399.47" y="138.82" width="7.19" height="7.19" style="fill:#fff"></rect><path d="M407.05,146.4h-8v-8h8Zm-7.18-.8h6.38v-6.38h-6.38Z" style="fill:#ebebeb"></path><polygon points="107.31 374.44 106.11 374.44 106.11 373.63 106.51 373.63 106.51 373.23 107.31 373.23 107.31 374.44" style="fill:#ebebeb"></polygon><path d="M104.51,374.44h-1.6v-.81h1.6Zm-3.21,0H99.7v-.81h1.6Zm-3.2,0H96.5v-.81h1.6Zm-3.2,0H93.29v-.81H94.9Zm-3.21,0h-1.6v-.81h1.6Zm-3.2,0h-1.6v-.81h1.6Zm-3.21,0h-1.6v-.81h1.6Zm-3.2,0h-1.6v-.81h1.6Zm-3.2,0H77.27v-.81h1.61Zm-3.21,0h-1.6v-.81h1.6Zm-3.2,0h-1.6v-.81h1.6Zm-3.21,0h-1.6v-.81h1.6Zm-3.2,0h-1.6v-.81h1.6Zm-3.2,0H61.25v-.81h1.61Zm-3.21,0h-1.6v-.81h1.6Zm-3.2,0h-1.6v-.81h1.6Zm-3.21,0h-1.6v-.81h1.6Z" style="fill:#ebebeb"></path><polygon points="50.04 374.44 48.84 374.44 48.84 373.23 49.64 373.23 49.64 373.63 50.04 373.63 50.04 374.44" style="fill:#ebebeb"></polygon><path d="M49.64,371.63h-.8V370h.8Zm0-3.2h-.8v-1.6h.8Zm0-3.21h-.8v-1.6h.8Zm0-3.2h-.8v-1.6h.8Zm0-3.2h-.8v-1.61h.8Zm0-3.21h-.8V354h.8Zm0-3.2h-.8v-1.6h.8Zm0-3.21h-.8v-1.6h.8Zm0-3.2h-.8v-1.6h.8Zm0-3.2h-.8v-1.61h.8Zm0-3.21h-.8V338h.8Zm0-3.2h-.8v-1.6h.8Zm0-3.2h-.8v-1.61h.8Zm0-3.21h-.8v-1.6h.8Zm0-3.2h-.8v-1.6h.8Zm0-3.21h-.8V322h.8Zm0-3.2h-.8v-1.6h.8Z" style="fill:#ebebeb"></path><polygon points="49.64 317.17 48.84 317.17 48.84 315.96 50.04 315.96 50.04 316.76 49.64 316.76 49.64 317.17" style="fill:#ebebeb"></polygon><path d="M104.51,316.76h-1.6V316h1.6Zm-3.21,0H99.7V316h1.6Zm-3.2,0H96.5V316h1.6Zm-3.2,0H93.29V316H94.9Zm-3.21,0h-1.6V316h1.6Zm-3.2,0h-1.6V316h1.6Zm-3.21,0h-1.6V316h1.6Zm-3.2,0h-1.6V316h1.6Zm-3.2,0H77.27V316h1.61Zm-3.21,0h-1.6V316h1.6Zm-3.2,0h-1.6V316h1.6Zm-3.21,0h-1.6V316h1.6Zm-3.2,0h-1.6V316h1.6Zm-3.2,0H61.25V316h1.61Zm-3.21,0h-1.6V316h1.6Zm-3.2,0h-1.6V316h1.6Zm-3.21,0h-1.6V316h1.6Z" style="fill:#ebebeb"></path><polygon points="107.31 317.17 106.51 317.17 106.51 316.76 106.11 316.76 106.11 315.96 107.31 315.96 107.31 317.17" style="fill:#ebebeb"></polygon><path d="M107.31,371.63h-.8V370h.8Zm0-3.2h-.8v-1.6h.8Zm0-3.21h-.8v-1.6h.8Zm0-3.2h-.8v-1.6h.8Zm0-3.2h-.8v-1.61h.8Zm0-3.21h-.8V354h.8Zm0-3.2h-.8v-1.6h.8Zm0-3.21h-.8v-1.6h.8Zm0-3.2h-.8v-1.6h.8Zm0-3.2h-.8v-1.61h.8Zm0-3.21h-.8V338h.8Zm0-3.2h-.8v-1.6h.8Zm0-3.2h-.8v-1.61h.8Zm0-3.21h-.8v-1.6h.8Zm0-3.2h-.8v-1.6h.8Zm0-3.21h-.8V322h.8Zm0-3.2h-.8v-1.6h.8Z" style="fill:#ebebeb"></path><rect x="45.65" y="370.44" width="7.19" height="7.19" style="fill:#fff"></rect><path d="M53.23,378h-8v-8h8Zm-7.18-.8h6.38v-6.39H46.05Z" style="fill:#ebebeb"></path><rect x="45.68" y="341.61" width="7.19" height="7.19" style="fill:#fff"></rect><path d="M53.23,349.19h-8v-8h8Zm-7.18-.8h6.38V342H46.05Z" style="fill:#ebebeb"></path><rect x="45.68" y="312.77" width="7.19" height="7.19" style="fill:#fff"></rect><path d="M53.23,320.36h-8v-8h8Zm-7.18-.8h6.38v-6.39H46.05Z" style="fill:#ebebeb"></path><rect x="103.35" y="370.44" width="7.19" height="7.19" style="fill:#fff"></rect><path d="M110.9,378h-8v-8h8Zm-7.18-.8h6.38v-6.39h-6.38Z" style="fill:#ebebeb"></path><rect x="103.35" y="341.61" width="7.19" height="7.19" style="fill:#fff"></rect><path d="M110.9,349.19h-8v-8h8Zm-7.18-.8h6.38V342h-6.38Z" style="fill:#ebebeb"></path><rect x="103.35" y="312.77" width="7.19" height="7.19" style="fill:#fff"></rect><path d="M110.9,320.36h-8v-8h8Zm-7.18-.8h6.38v-6.39h-6.38Z" style="fill:#ebebeb"></path><rect x="74.51" y="312.77" width="7.19" height="7.19" style="fill:#fff"></rect><path d="M82.07,320.36h-8v-8h8Zm-7.19-.8h6.39v-6.39H74.88Z" style="fill:#ebebeb"></path><rect x="74.48" y="370.44" width="7.19" height="7.19" style="fill:#fff"></rect><path d="M82.07,378h-8v-8h8Zm-7.19-.8h6.39v-6.39H74.88Z" style="fill:#ebebeb"></path><path d="M170.62,129.54H44V42.9H170.62ZM45,128.54H169.62V43.9H45Z" style="fill:#ebebeb"></path><path d="M53.88,48.48A2.52,2.52,0,1,1,51.36,46,2.52,2.52,0,0,1,53.88,48.48Z" style="fill:#a6a6a6"></path><path d="M64.17,48.48A2.52,2.52,0,1,1,61.65,46,2.52,2.52,0,0,1,64.17,48.48Z" style="fill:#ebebeb"></path><path d="M74.46,48.48A2.52,2.52,0,1,1,71.94,46,2.52,2.52,0,0,1,74.46,48.48Z" style="fill:#FF9130"></path><rect x="44.48" y="52.92" width="125.64" height="1" style="fill:#ebebeb"></rect><path d="M453.31,268.32a2.23,2.23,0,0,1-2.32,0l-.6-.34-.61-.31a2.19,2.19,0,0,1-1.29-1.91l-.09-2.85-9.28.29.09,2.85a2.21,2.21,0,0,1-1.17,2c-.4.22-.8.46-1.18.72a2.17,2.17,0,0,1-2.3.15l-2.5-1.34-4.39,8.18,2.5,1.35a2.2,2.2,0,0,1,1.15,2,12.73,12.73,0,0,0,.05,1.38,2.21,2.21,0,0,1-1,2.08l-2.43,1.5,4.9,7.89,2.43-1.51a2.23,2.23,0,0,1,2.31,0c.19.12.39.23.59.34l.61.31a2.2,2.2,0,0,1,1.3,1.92l.08,2.85,9.28-.29-.09-2.84a2.2,2.2,0,0,1,1.17-2c.4-.22.8-.47,1.18-.73a2.17,2.17,0,0,1,2.3-.15l2.51,1.34,4.39-8.18-2.51-1.35a2.2,2.2,0,0,1-1.15-2,12.83,12.83,0,0,0,0-1.39,2.21,2.21,0,0,1,1-2.08l2.42-1.49-4.9-7.89ZM451,283a7.61,7.61,0,1,1-3.11-10.29A7.61,7.61,0,0,1,451,283Z" style="fill:#ebebeb"></path><path d="M314.26,46.47a2.21,2.21,0,0,1-2.31,0l-.6-.34-.61-.31a2.19,2.19,0,0,1-1.29-1.92L309.36,41l-9.28.29.09,2.85a2.22,2.22,0,0,1-1.17,2c-.4.22-.8.47-1.18.73a2.2,2.2,0,0,1-2.3.15L293,45.71l-4.39,8.19,2.51,1.34a2.21,2.21,0,0,1,1.15,2,12.82,12.82,0,0,0,.05,1.39,2.21,2.21,0,0,1-1,2.07l-2.42,1.51,4.9,7.89,2.43-1.51a2.21,2.21,0,0,1,2.31,0l.59.34.61.3a2.23,2.23,0,0,1,1.3,1.92L301.1,74l9.28-.29-.09-2.84a2.23,2.23,0,0,1,1.16-2,12.25,12.25,0,0,0,1.19-.73,2.22,2.22,0,0,1,2.3-.15l2.51,1.35,4.39-8.19-2.51-1.34a2.22,2.22,0,0,1-1.15-2c0-.46,0-.92,0-1.38a2.19,2.19,0,0,1,1-2.08l2.42-1.5L316.68,45Zm-2.32,14.66a7.61,7.61,0,1,1-3.12-10.3A7.62,7.62,0,0,1,311.94,61.13Z" style="fill:#ebebeb"></path><path d="M429.58,303.83a1.55,1.55,0,0,1-1.44.76l-.47,0-.49,0a1.54,1.54,0,0,1-1.43-.76l-1-1.73-5.63,3.25,1,1.73a1.55,1.55,0,0,1-.06,1.62,8.77,8.77,0,0,0-.49.84,1.54,1.54,0,0,1-1.37.86h-2v6.5h2a1.54,1.54,0,0,1,1.37.86,8.77,8.77,0,0,0,.49.84,1.55,1.55,0,0,1,.06,1.62l-1,1.73,5.63,3.25,1-1.74a1.54,1.54,0,0,1,1.43-.75h.95a1.55,1.55,0,0,1,1.44.76l1,1.73,5.63-3.25-1-1.73a1.55,1.55,0,0,1,.06-1.62,8.77,8.77,0,0,0,.49-.84,1.54,1.54,0,0,1,1.37-.86h2v-6.5h-2a1.54,1.54,0,0,1-1.37-.86,8.77,8.77,0,0,0-.49-.84,1.55,1.55,0,0,1-.06-1.62l1-1.73-5.63-3.25Zm3.42,9.82a5.33,5.33,0,1,1-5.33-5.33A5.33,5.33,0,0,1,433,313.65Z" style="fill:#ebebeb"></path><path d="M40.85,164.63a1.54,1.54,0,0,1,.76,1.43c0,.16,0,.32,0,.48s0,.32,0,.48a1.53,1.53,0,0,1-.76,1.43l-1.73,1,3.25,5.64,1.73-1a1.55,1.55,0,0,1,1.62.06,8.68,8.68,0,0,0,.84.48,1.56,1.56,0,0,1,.86,1.38v2h6.5v-2a1.56,1.56,0,0,1,.86-1.38,8.68,8.68,0,0,0,.84-.48,1.55,1.55,0,0,1,1.62-.06l1.73,1,3.25-5.64-1.74-1a1.55,1.55,0,0,1-.75-1.43c0-.16,0-.32,0-.48s0-.32,0-.48a1.54,1.54,0,0,1,.76-1.43l1.73-1L59,158l-1.73,1a1.53,1.53,0,0,1-1.62-.05,8.77,8.77,0,0,0-.84-.49,1.54,1.54,0,0,1-.86-1.37v-2h-6.5v2a1.54,1.54,0,0,1-.86,1.37,8.77,8.77,0,0,0-.84.49,1.53,1.53,0,0,1-1.62.05l-1.73-1-3.25,5.63Zm9.82-3.42a5.33,5.33,0,1,1-5.33,5.33A5.33,5.33,0,0,1,50.67,161.21Z" style="fill:#ebebeb"></path></g><g id="freepik--Shadow--inject-37"><ellipse cx="372.91" cy="441.07" rx="92.8" ry="18" style="fill:#ebebeb"></ellipse></g><g id="freepik--Floor--inject-37"><polygon points="39.12 418.81 91.84 418.57 144.56 418.48 250 418.32 355.44 418.48 408.16 418.57 460.88 418.81 408.16 419.06 355.44 419.15 250 419.31 144.56 419.15 91.84 419.06 39.12 418.81" style="fill:#263238"></polygon></g><g id="freepik--Screens--inject-37"><path d="M225,90.07v290.6c0,8.22-6.15,14.86-13.73,14.86H75.65c-7.6,0-13.75-6.64-13.75-14.86V90.07c0-16.73,6.15-17.55,13.75-17.55h27.17c1.58,0,2.87,1.8,2.87,4v1c0,5.21,2.86,5.23,6.35,5.23h62.83c3.53,0,6.37,0,6.37-5.23v-1c0-2.22,1.27-4,2.87-4h27.17C218.86,72.52,225,74.75,225,90.07Z" style="fill:#dbdbdb"></path><path d="M225,90.07V212.23H61.9V90.07c0-16.73,6.15-17.55,13.75-17.55h27.17c1.58,0,2.87,1.8,2.87,4v1c0,5.21,2.86,5.23,6.35,5.23h62.83c3.53,0,6.37,0,6.37-5.23v-1c0-2.22,1.27-4,2.87-4h27.17C218.86,72.52,225,74.75,225,90.07Z" style="fill:#c7c7c7"></path><g id="freepik--u5Zjqx--inject-37"><path d="M98.13,79.05c-.08.09-.17.17-.26.26l-.15.15a3.57,3.57,0,0,0-5.06,0l-.14-.14-.26-.26h0l.33-.3a4.12,4.12,0,0,1,.77-.48,4,4,0,0,1,1-.35c.17,0,.34,0,.51-.06h.44l.35,0a4.22,4.22,0,0,1,.93.23,4.51,4.51,0,0,1,.63.29,5.47,5.47,0,0,1,.61.42l.27.25Z" style="fill:#fff"></path><path d="M93.49,80.29l-.41-.42a3,3,0,0,1,4.23,0l-.42.41a2.4,2.4,0,0,0-3.4,0Z" style="fill:#fff"></path><path d="M96.47,80.7c-.13.14-.27.27-.41.41a1.23,1.23,0,0,0-1.74,0l-.41-.41A1.8,1.8,0,0,1,96.47,80.7Z" style="fill:#fff"></path><path d="M95.56,81.49a.37.37,0,0,1-.37.37.38.38,0,0,1,0-.75A.37.37,0,0,1,95.56,81.49Z" style="fill:#fff"></path></g><circle cx="73.62" cy="79.84" r="1.08" style="fill:#fff"></circle><circle cx="77.02" cy="79.84" r="1.08" style="fill:#fff"></circle><path d="M79.35,79.84a1.08,1.08,0,1,1,1.08,1.08A1.08,1.08,0,0,1,79.35,79.84Z" style="fill:#fff"></path><path d="M82.75,79.84a1.08,1.08,0,0,1,2.16,0,1.08,1.08,0,0,1-2.16,0Z" style="fill:#fff"></path><path d="M86.16,79.84a1.08,1.08,0,1,1,1.08,1.08A1.08,1.08,0,0,1,86.16,79.84Z" style="fill:#fff"></path><path d="M212.78,82.2H204V78.13h8.8Zm-8.35-.44h7.9V78.58h-7.9Z" style="fill:#fff"></path><rect x="204.71" y="78.82" width="5.67" height="2.69" style="fill:#fff"></rect><rect x="212.79" y="79.07" width="0.78" height="2.18" style="fill:#fff"></rect><polygon points="77.36 106.37 72.54 101.86 77.36 97.34 78.1 98.14 74.14 101.86 78.1 105.58 77.36 106.37" style="fill:#fff"></polygon><path d="M162.34,178.32A35.34,35.34,0,0,1,152,182.66a35.92,35.92,0,1,1,10.36-4.34Z" style="fill:#fff"></path><path d="M154.38,143.67a10.93,10.93,0,1,1-10.93-10.93A10.94,10.94,0,0,1,154.38,143.67Z" style="fill:#FF9130"></path><path d="M162.34,173.82v4.5A35.34,35.34,0,0,1,152,182.66a35.74,35.74,0,0,1-27.42-4.35v-4.49a18.89,18.89,0,0,1,37.78,0Z" style="fill:#FF9130"></path><rect x="79.36" y="199.78" width="128.2" height="124.47" style="fill:#fff"></rect><path d="M122.65,214.58l-3.3,7.84a.24.24,0,0,1-.07.12v0s0,.05-.07.08,0,0,0,0a.2.2,0,0,0-.09.07h0a1.25,1.25,0,0,1-.12.08h0l-.1,0h-.33l-.09,0h0a.62.62,0,0,1-.12-.08h0a.46.46,0,0,0-.1-.07l0,0-.06-.08a0,0,0,0,1,0,0s0-.08-.06-.12l-1.76-4.17-1.76,4.17a.34.34,0,0,1-.06.12s0,0,0,0l-.08.08s0,0,0,0a.18.18,0,0,0-.08.07h0l-.11.08h0a.13.13,0,0,0-.1,0h-.34l-.09,0h0l-.12-.08h0c-.05,0-.06-.06-.1-.07l0,0-.06-.08v0s0-.08-.07-.12l-3.31-7.84a.74.74,0,0,1,1.36-.56l2.64,6.22,1.73-4.12a.73.73,0,0,1,.7-.46.76.76,0,0,1,.7.46l1.74,4.12,2.62-6.22a.74.74,0,0,1,1-.39A.72.72,0,0,1,122.65,214.58Z" style="fill:#263238"></path><path d="M124.8,222.14v-7.93a.73.73,0,0,1,.74-.74h4.4a.74.74,0,0,1,.74.74.76.76,0,0,1-.74.75h-3.65v2.46h3.14a.76.76,0,0,1,.74.74.75.75,0,0,1-.74.75h-3.14v2.48h3.65a.75.75,0,0,1,0,1.49h-4.4A.74.74,0,0,1,124.8,222.14Z" style="fill:#263238"></path><path d="M132.78,222.14v-7.93a.73.73,0,0,1,.74-.74.75.75,0,0,1,.75.74v7.18h3.64a.75.75,0,0,1,0,1.49h-4.39A.74.74,0,0,1,132.78,222.14Z" style="fill:#263238"></path><path d="M139.39,218a4.94,4.94,0,0,1,4.94-4.84,5,5,0,0,1,3.11,1.05.77.77,0,0,1-.95,1.22,3.37,3.37,0,0,0-2.16-.74,3.56,3.56,0,0,0-2.42,1,3.29,3.29,0,0,0-1,2.34,3.25,3.25,0,0,0,1,2.34,3.56,3.56,0,0,0,2.42,1,3.39,3.39,0,0,0,2.16-.74.81.81,0,0,1,1.08.15.79.79,0,0,1-.13,1.07,5,5,0,0,1-3.11,1A4.92,4.92,0,0,1,139.39,218Z" style="fill:#263238"></path><path d="M157.34,214.64a4.93,4.93,0,0,1,0,6.8,4.4,4.4,0,0,1-3.22,1.44,4.51,4.51,0,0,1-3.29-1.44,5,5,0,0,1,0-6.8,4.47,4.47,0,0,1,3.29-1.44A4.37,4.37,0,0,1,157.34,214.64Zm-.18,3.4a3.51,3.51,0,0,0-.91-2.36,2.92,2.92,0,0,0-4.31,0A3.46,3.46,0,0,0,151,218a3.39,3.39,0,0,0,.91,2.34,2.88,2.88,0,0,0,4.31,0A3.44,3.44,0,0,0,157.16,218Z" style="fill:#263238"></path><path d="M168.9,214.21v7.93a.76.76,0,0,1-.75.74.74.74,0,0,1-.74-.74v-5.66l-1.94,2.69a.72.72,0,0,1-.6.31h0a.77.77,0,0,1-.62-.31l-1.92-2.69v5.66a.75.75,0,0,1-.75.74.74.74,0,0,1-.74-.74v-7.93a.74.74,0,0,1,.74-.74h0a.72.72,0,0,1,.59.3l2.68,3.72,2.67-3.72a.74.74,0,0,1,.61-.3h0A.76.76,0,0,1,168.9,214.21Z" style="fill:#263238"></path><path d="M171.49,222.14v-7.93a.73.73,0,0,1,.74-.74h4.4a.74.74,0,0,1,.73.74.75.75,0,0,1-.73.75H173v2.46h3.13a.75.75,0,0,1,.74.74.74.74,0,0,1-.74.75H173v2.48h3.65a.75.75,0,0,1,0,1.49h-4.4A.74.74,0,0,1,171.49,222.14Z" style="fill:#263238"></path><path d="M94.36,245v-3.17a.29.29,0,0,1,.3-.3h1.76a.3.3,0,0,1,.29.3.31.31,0,0,1-.29.3H95v1h1.25a.31.31,0,0,1,.3.3.3.3,0,0,1-.3.3H95v1h1.46a.3.3,0,0,1,.29.3.31.31,0,0,1-.29.3H94.66A.3.3,0,0,1,94.36,245Z" style="fill:#FF9130"></path><path d="M100.79,241.78V245a.31.31,0,0,1-.3.3.3.3,0,0,1-.3-.3v-2.26l-.77,1.07a.31.31,0,0,1-.24.13h0a.31.31,0,0,1-.24-.13l-.77-1.07V245a.3.3,0,1,1-.6,0v-3.17a.31.31,0,0,1,.3-.3h0a.29.29,0,0,1,.24.13l1.07,1.48,1.07-1.48a.31.31,0,0,1,.24-.13h0A.31.31,0,0,1,100.79,241.78Z" style="fill:#FF9130"></path><path d="M103.66,244.36h-1.3l-.27.7a.3.3,0,0,1-.28.19l-.1,0a.31.31,0,0,1-.18-.39l1.19-3.16a.3.3,0,0,1,.29-.19.29.29,0,0,1,.28.19l1.19,3.16a.31.31,0,0,1-.18.39l-.1,0a.28.28,0,0,1-.27-.19Zm-.22-.59-.43-1.16-.44,1.16Z" style="fill:#FF9130"></path><path d="M105.26,241.78a.29.29,0,0,1,.29-.3.3.3,0,0,1,.3.3V245a.3.3,0,0,1-.3.3.29.29,0,0,1-.29-.3Z" style="fill:#FF9130"></path><path d="M106.86,245v-3.17a.3.3,0,0,1,.3-.3.31.31,0,0,1,.3.3v2.87h1.45a.3.3,0,0,1,.3.3.31.31,0,0,1-.3.3h-1.75A.3.3,0,0,1,106.86,245Z" style="fill:#FF9130"></path><polygon points="93.8 259.75 106.22 259.58 118.63 259.49 143.47 259.41 168.3 259.49 180.71 259.58 193.13 259.75 180.71 259.91 168.3 260.01 143.47 260.08 118.63 260 106.22 259.91 93.8 259.75" style="fill:#ebebeb"></polygon><path d="M95.62,274.05H95v1.17a.3.3,0,0,1-.6,0v-3.17a.3.3,0,0,1,.3-.3h1a1.15,1.15,0,1,1,0,2.3Zm-.66-.6h.66a.55.55,0,1,0,0-1.1H95Z" style="fill:#FF9130"></path><path d="M99,274.63H97.73l-.26.7a.31.31,0,0,1-.28.18h-.1a.31.31,0,0,1-.18-.39l1.19-3.17a.3.3,0,0,1,.28-.18.3.3,0,0,1,.29.18l1.19,3.17a.31.31,0,0,1-.18.39h-.1a.31.31,0,0,1-.28-.18Zm-.22-.59-.44-1.16L98,274Z" style="fill:#FF9130"></path><path d="M100.39,274.58a.27.27,0,0,1,.39,0,1.81,1.81,0,0,0,1,.42,1.21,1.21,0,0,0,.67-.2.5.5,0,0,0,.23-.39.31.31,0,0,0,0-.17.41.41,0,0,0-.16-.16,2,2,0,0,0-.74-.26h0a2.79,2.79,0,0,1-.69-.21,1.13,1.13,0,0,1-.5-.42.83.83,0,0,1-.12-.44,1,1,0,0,1,.43-.78,1.54,1.54,0,0,1,.93-.29,2.19,2.19,0,0,1,1.17.43.27.27,0,0,1,.07.38.27.27,0,0,1-.38.08,1.57,1.57,0,0,0-.86-.34,1.1,1.1,0,0,0-.61.18.45.45,0,0,0-.2.34.22.22,0,0,0,0,.15.37.37,0,0,0,.14.14,1.72,1.72,0,0,0,.67.24h0a2.79,2.79,0,0,1,.74.23,1.23,1.23,0,0,1,.54.44.88.88,0,0,1,.12.46,1,1,0,0,1-.46.83,1.62,1.62,0,0,1-1,.31,2.38,2.38,0,0,1-1.38-.54A.28.28,0,0,1,100.39,274.58Z" style="fill:#FF9130"></path><path d="M103.92,274.58a.27.27,0,0,1,.39,0,1.84,1.84,0,0,0,1,.42,1.21,1.21,0,0,0,.67-.2.49.49,0,0,0,.24-.39.31.31,0,0,0,0-.17A.49.49,0,0,0,106,274a2,2,0,0,0-.74-.26h0a2.87,2.87,0,0,1-.7-.21,1.13,1.13,0,0,1-.5-.42.83.83,0,0,1-.12-.44,1,1,0,0,1,.43-.78,1.54,1.54,0,0,1,.93-.29,2.13,2.13,0,0,1,1.17.43.28.28,0,0,1,.08.38.27.27,0,0,1-.38.08,1.6,1.6,0,0,0-.87-.34,1.07,1.07,0,0,0-.6.18.43.43,0,0,0-.21.34.22.22,0,0,0,0,.15.51.51,0,0,0,.15.14,1.72,1.72,0,0,0,.67.24h0a2.68,2.68,0,0,1,.74.23,1.18,1.18,0,0,1,.54.44.88.88,0,0,1,.13.46,1,1,0,0,1-.46.83,1.67,1.67,0,0,1-1,.31A2.38,2.38,0,0,1,104,275,.29.29,0,0,1,103.92,274.58Z" style="fill:#FF9130"></path><path d="M112.45,272.2l-1.31,3.13,0,.05h0l0,0h0l0,0h0s0,0,0,0h-.23a.09.09,0,0,1,0,0h0l0,0h0l0,0h0s0,0,0-.05l-.7-1.67-.71,1.67a.08.08,0,0,1,0,.05h0l0,0h0l0,0h0l0,0h-.23a.09.09,0,0,1,0,0h0l0,0h0l0,0h0l0-.05-1.32-3.13a.29.29,0,1,1,.54-.23l1,2.49.7-1.65a.29.29,0,0,1,.28-.18.31.31,0,0,1,.28.18l.69,1.65,1-2.49a.3.3,0,0,1,.39-.16A.29.29,0,0,1,112.45,272.2Z" style="fill:#FF9130"></path><path d="M116.2,272.22a2,2,0,0,1,0,2.72,1.74,1.74,0,0,1-1.28.57,1.81,1.81,0,0,1-1.32-.57,2,2,0,0,1,0-2.72,1.78,1.78,0,0,1,1.32-.58A1.71,1.71,0,0,1,116.2,272.22Zm-.07,1.36a1.37,1.37,0,0,0-.36-.94,1.18,1.18,0,0,0-.85-.38,1.16,1.16,0,0,0-.87.38,1.37,1.37,0,0,0,0,1.87,1.13,1.13,0,0,0,.87.39,1.15,1.15,0,0,0,.85-.39A1.36,1.36,0,0,0,116.13,273.58Z" style="fill:#FF9130"></path><path d="M120.3,275.07a.29.29,0,0,1-.19.37l-.12,0h0a.36.36,0,0,1-.21-.06.55.55,0,0,1-.18-.19,1.5,1.5,0,0,1-.11-.64.48.48,0,0,0-.06-.23.61.61,0,0,0-.16-.16,1,1,0,0,0-.31-.13h-.63v1.17a.3.3,0,0,1-.6,0v-3.17a.29.29,0,0,1,.3-.3h1a1.15,1.15,0,0,1,.73,2,.73.73,0,0,1,.19.2,1,1,0,0,1,.18.58,1.24,1.24,0,0,0,0,.32A.27.27,0,0,1,120.3,275.07Zm-.75-2.16a.55.55,0,0,0-.56-.56h-.66v1.1H119A.55.55,0,0,0,119.55,272.91Z" style="fill:#FF9130"></path><path d="M121.17,275.22v-3.17a.29.29,0,0,1,.3-.3h.63a1.88,1.88,0,1,1,0,3.76h-.63A.29.29,0,0,1,121.17,275.22Zm.6-.3h.33a1.29,1.29,0,0,0,1.28-1.29,1.28,1.28,0,0,0-1.28-1.28h-.33Z" style="fill:#FF9130"></path><polygon points="93.8 290.01 106.22 289.85 118.63 289.76 143.47 289.68 168.3 289.76 180.71 289.85 193.13 290.01 180.71 290.18 168.3 290.27 143.47 290.35 118.63 290.27 106.22 290.18 93.8 290.01" style="fill:#ebebeb"></polygon><rect x="106.94" y="312.77" width="73.05" height="22.96" style="fill:#FF9130"></rect><path d="M131.14,327.26v-4.77a.44.44,0,0,1,.44-.44.45.45,0,0,1,.45.44v4.31h2.19a.45.45,0,1,1,0,.9h-2.64A.44.44,0,0,1,131.14,327.26Z" style="fill:#fff"></path><path d="M139.81,322.75a2.95,2.95,0,0,1,0,4.08,2.61,2.61,0,0,1-1.93.87,2.7,2.7,0,0,1-2-.87,3,3,0,0,1,0-4.08,2.69,2.69,0,0,1,2-.86A2.6,2.6,0,0,1,139.81,322.75Zm-.1,2a2.08,2.08,0,0,0-.55-1.41,1.74,1.74,0,0,0-2.58,0,2.08,2.08,0,0,0,0,2.82,1.72,1.72,0,0,0,2.58,0A2.08,2.08,0,0,0,139.71,324.79Z" style="fill:#fff"></path><path d="M142,324.8a3,3,0,0,1,4.82-2.28.46.46,0,0,1,.09.65.48.48,0,0,1-.66.07,2.11,2.11,0,0,0-1.27-.43,2,2,0,0,0-1.46.59,1.92,1.92,0,0,0,0,2.79,2,2,0,0,0,1.46.59,2.17,2.17,0,0,0,1.1-.31v-1.1H144.9a.47.47,0,0,1-.46-.46.46.46,0,0,1,.46-.46h1.61a.46.46,0,0,1,.46.46v1.78a.59.59,0,0,1,0,.14s0,0,0,0h0a.37.37,0,0,1-.15.19,3,3,0,0,1-1.83.63A2.93,2.93,0,0,1,142,324.8Z" style="fill:#fff"></path><path d="M148.84,322.49a.44.44,0,0,1,.45-.44.45.45,0,0,1,.45.44v4.77a.45.45,0,0,1-.45.44.44.44,0,0,1-.45-.44Z" style="fill:#fff"></path><path d="M152.14,327.26a.44.44,0,0,1-.44.44.44.44,0,0,1-.44-.44v-4.7h0a.44.44,0,0,1,.17-.38.46.46,0,0,1,.62.1l2.61,3.61v-3.33a.43.43,0,0,1,.43-.43.45.45,0,0,1,.45.43v4.7a.44.44,0,0,1-.78.28l0-.05-2.58-3.59Z" style="fill:#fff"></path><path d="M120.27,344.19a.14.14,0,0,1,.13-.13h1.94a.13.13,0,0,1,.13.13.13.13,0,0,1-.13.14h-1.8v1.49h1.58a.13.13,0,0,1,0,.26h-1.58v1.62a.13.13,0,0,1-.14.13.13.13,0,0,1-.13-.13Z" style="fill:#263238"></path><path d="M124.2,345.19a1.32,1.32,0,1,1-1.25,1.32A1.3,1.3,0,0,1,124.2,345.19Zm0,2.38a1.06,1.06,0,1,0-1-1.06A1,1,0,0,0,124.2,347.57Z" style="fill:#263238"></path><path d="M126.33,345.33a.13.13,0,0,1,.14-.13.12.12,0,0,1,.12.13v.58l0-.07a1.27,1.27,0,0,1,1.05-.64.13.13,0,0,1,.13.13.13.13,0,0,1-.13.13.94.94,0,0,0-.76.43,2.25,2.25,0,0,0-.32.61.08.08,0,0,0,0,0v1.16a.13.13,0,0,1-.12.13.13.13,0,0,1-.14-.13Z" style="fill:#263238"></path><path d="M131,347.62a1.24,1.24,0,0,1-1.24,1.24,1.34,1.34,0,0,1-.55-.13.14.14,0,0,1,0-.17.12.12,0,0,1,.17-.06.91.91,0,0,0,.43.1,1,1,0,0,0,1-1v-.32a1.21,1.21,0,0,1-1,.51,1.31,1.31,0,0,1,0-2.62,1.22,1.22,0,0,1,1,.52v-.39a.13.13,0,0,1,.13-.13.12.12,0,0,1,.12.13Zm-.25-1.12a1,1,0,1,0-1,1.06A1,1,0,0,0,130.74,346.5Z" style="fill:#263238"></path><path d="M133.37,345.19a1.32,1.32,0,1,1-1.25,1.32A1.3,1.3,0,0,1,133.37,345.19Zm0,2.38a1.06,1.06,0,1,0-1-1.06A1,1,0,0,0,133.37,347.57Z" style="fill:#263238"></path><path d="M136.42,345.32a.13.13,0,0,1-.13.13H136v1.92a.21.21,0,0,0,.19.2.13.13,0,1,1,0,.26.45.45,0,0,1-.46-.46v-1.92h-.33c-.13,0-.13-.06-.13-.13s0-.13.13-.13h.33v-1a.13.13,0,0,1,.13-.12.14.14,0,0,1,.14.12v1h.33A.14.14,0,0,1,136.42,345.32Z" style="fill:#263238"></path><path d="M139.27,346.55v-1.23a.13.13,0,0,1,.13-.13.13.13,0,0,1,.13.13v.38a1.29,1.29,0,1,1,1,2.11,1.25,1.25,0,0,1-1-.51v1.5a.13.13,0,0,1-.13.13.13.13,0,0,1-.13-.13Zm.26-.05a1,1,0,1,0,1-1,1,1,0,0,0-1,1Z" style="fill:#263238"></path><path d="M145,345.32v2.38a.13.13,0,0,1-.26,0v-.39a1.22,1.22,0,0,1-1,.52,1.32,1.32,0,0,1,0-2.64,1.22,1.22,0,0,1,1,.52v-.39a.13.13,0,0,1,.26,0Zm-.26,1.19a1,1,0,1,0-1,1.06A1,1,0,0,0,144.77,346.51Z" style="fill:#263238"></path><path d="M146,347.28a.14.14,0,0,1,.18,0,1.41,1.41,0,0,0,.81.31.79.79,0,0,0,.5-.16.41.41,0,0,0,.2-.32.46.46,0,0,0-.19-.33,1.33,1.33,0,0,0-.56-.19h0a1.42,1.42,0,0,1-.6-.2.56.56,0,0,1-.28-.47.67.67,0,0,1,.28-.52,1.14,1.14,0,0,1,.65-.18,1.38,1.38,0,0,1,.78.29.13.13,0,0,1-.14.22,1.11,1.11,0,0,0-.64-.26.73.73,0,0,0-.5.15.38.38,0,0,0-.17.3.33.33,0,0,0,.15.26,1.26,1.26,0,0,0,.54.18h0a1.93,1.93,0,0,1,.64.22.67.67,0,0,1,.3.54.68.68,0,0,1-.31.53,1.08,1.08,0,0,1-.65.21,1.6,1.6,0,0,1-1-.38A.12.12,0,0,1,146,347.28Z" style="fill:#263238"></path><path d="M148.56,347.28a.15.15,0,0,1,.19,0,1.36,1.36,0,0,0,.8.31.77.77,0,0,0,.5-.16.41.41,0,0,0,.2-.32c0-.13-.05-.21-.19-.33a1.33,1.33,0,0,0-.56-.19h0a1.42,1.42,0,0,1-.59-.2.55.55,0,0,1-.29-.47.65.65,0,0,1,.29-.52,1.08,1.08,0,0,1,.64-.18,1.44,1.44,0,0,1,.79.29.13.13,0,0,1,0,.18.12.12,0,0,1-.17,0,1.17,1.17,0,0,0-.65-.26.75.75,0,0,0-.5.15.37.37,0,0,0-.16.3.3.3,0,0,0,.15.26,1.16,1.16,0,0,0,.53.18h0a1.85,1.85,0,0,1,.64.22.64.64,0,0,1,.3.54.67.67,0,0,1-.3.53,1.11,1.11,0,0,1-.66.21,1.63,1.63,0,0,1-1-.38A.13.13,0,0,1,148.56,347.28Z" style="fill:#263238"></path><path d="M152.19,347.81a.15.15,0,0,1-.05-.06l-1-2.36a.12.12,0,0,1,.07-.16.11.11,0,0,1,.16.07l.88,2.07.61-1.45a.15.15,0,0,1,.12-.08.17.17,0,0,1,.13.08l.61,1.45.87-2.07a.12.12,0,0,1,.16-.07.11.11,0,0,1,.07.16l-1,2.35a.15.15,0,0,1,0,.06l-.06,0h0a.14.14,0,0,1-.1-.08h0l-.61-1.46-.61,1.46h0a.13.13,0,0,1-.12.08h-.07Z" style="fill:#263238"></path><path d="M156.93,345.19a1.32,1.32,0,1,1-1.24,1.32A1.29,1.29,0,0,1,156.93,345.19Zm0,2.38a1.06,1.06,0,1,0-1-1.06A1,1,0,0,0,156.93,347.57Z" style="fill:#263238"></path><path d="M159.06,345.33a.13.13,0,0,1,.14-.13.12.12,0,0,1,.12.13v.58a.43.43,0,0,0,0-.07,1.28,1.28,0,0,1,1.06-.64.12.12,0,0,1,.12.13.13.13,0,0,1-.12.13.94.94,0,0,0-.77.43,2.25,2.25,0,0,0-.32.61.08.08,0,0,0,0,0v1.16a.13.13,0,0,1-.12.13.13.13,0,0,1-.14-.13Z" style="fill:#263238"></path><path d="M163.4,347.32a1.26,1.26,0,0,1-1,.51,1.32,1.32,0,0,1,0-2.64,1.27,1.27,0,0,1,1,.52v-1.52a.13.13,0,0,1,.26,0v3.51a.13.13,0,0,1-.26,0Zm0-.76v-.09a1.06,1.06,0,1,0,0,.09Z" style="fill:#263238"></path><path d="M165.46,346.28h0a.12.12,0,0,1,.12-.12.91.91,0,1,0,0-1.82.86.86,0,0,0-.78.45.14.14,0,0,1-.18.05.12.12,0,0,1,0-.17,1.15,1.15,0,0,1,1-.59,1.16,1.16,0,0,1,.13,2.32V347a.12.12,0,0,1-.13.12.12.12,0,0,1-.12-.12Zm0,1.31a.13.13,0,0,1,.12-.13.13.13,0,0,1,.13.13v.11a.13.13,0,0,1-.13.13.13.13,0,0,1-.12-.13Z" style="fill:#263238"></path><circle cx="70.29" cy="73.83" r="10.13" style="fill:#FF9130"></circle><polygon points="69.11 79.73 64.67 75.23 66.16 73.76 68.76 76.39 74.15 67.93 75.92 69.06 69.11 79.73" style="fill:#fff"></polygon><path d="M269,90.07v290.6c0,8.22-6.15,14.86-13.74,14.86H119.64c-7.61,0-13.76-6.64-13.76-14.86V90.07c0-16.73,6.15-17.55,13.76-17.55H146.8c1.58,0,2.87,1.8,2.87,4v1c0,5.21,2.85,5.23,6.36,5.23h62.82c3.54,0,6.36,0,6.36-5.23v-1c0-2.22,1.27-4,2.88-4h27.17C262.85,72.52,269,74.75,269,90.07Z" style="fill:#fff"></path><path d="M269,90.07v21.69H105.88V90.07c0-16.73,6.15-17.55,13.75-17.55H146.8c1.58,0,2.87,1.8,2.87,4v1c0,5.21,2.85,5.23,6.35,5.23h62.83c3.53,0,6.36,0,6.36-5.23v-1c0-2.22,1.28-4,2.88-4h27.17C262.84,72.52,269,74.75,269,90.07Z" style="fill:#dbdbdb"></path><polygon points="121.33 101.17 116.52 96.66 121.33 92.14 122.08 92.94 118.11 96.66 122.08 100.37 121.33 101.17" style="fill:#fff"></polygon><path d="M254.23,101.52h-3.3v-1.15a.23.23,0,0,0-.13-.21,2.12,2.12,0,0,1-.36-.21.25.25,0,0,0-.25,0l-1,.58-1.65-2.86,1-.58a.21.21,0,0,0,.11-.22v-.41a.22.22,0,0,0-.11-.22l-1-.58,1.65-2.86,1,.58a.23.23,0,0,0,.24,0,2.71,2.71,0,0,1,.37-.21.23.23,0,0,0,.13-.21V91.79h3.3v1.15a.23.23,0,0,0,.13.21,2.71,2.71,0,0,1,.37.21.23.23,0,0,0,.24,0l1-.58,1.65,2.86-1,.58a.22.22,0,0,0-.11.22v.41a.23.23,0,0,0,.11.22l1,.58L256,100.52l-1-.58a.23.23,0,0,0-.24,0,2.71,2.71,0,0,1-.37.21.23.23,0,0,0-.13.21Zm-2.55-.75h1.8v-.4a1,1,0,0,1,.54-.88,2.28,2.28,0,0,0,.3-.17,1,1,0,0,1,1,0l.35.2.9-1.56-.36-.2a1,1,0,0,1-.48-.91v-.34a1,1,0,0,1,.48-.9l.36-.2-.9-1.56-.35.2a1,1,0,0,1-1,0,1.78,1.78,0,0,0-.3-.17,1,1,0,0,1-.54-.88v-.4h-1.8v.4a1,1,0,0,1-.54.88,2.28,2.28,0,0,0-.3.17,1,1,0,0,1-1,0l-.36-.2-.9,1.56.36.2a1,1,0,0,1,.48.91v.34a1,1,0,0,1-.48.9l-.36.2.91,1.56.35-.2a1,1,0,0,1,1,0,1.69,1.69,0,0,0,.29.17,1,1,0,0,1,.54.88Zm.9-1.65a2.47,2.47,0,1,1,2.47-2.47A2.47,2.47,0,0,1,252.58,99.12Zm0-4.18a1.72,1.72,0,1,0,1.72,1.71A1.72,1.72,0,0,0,252.58,94.94Z" style="fill:#fff"></path><g id="freepik--u5zjqx--inject-37"><path d="M142.11,79.05l-.26.26-.15.15a3.57,3.57,0,0,0-5.06,0,1.85,1.85,0,0,0-.14-.14c-.09-.09-.17-.18-.26-.26h0l.33-.3a4.12,4.12,0,0,1,.77-.48,4,4,0,0,1,1-.35c.17,0,.34,0,.51-.06h.44l.35,0a4.22,4.22,0,0,1,.93.23,4.51,4.51,0,0,1,.63.29,5.47,5.47,0,0,1,.61.42l.27.25Z" style="fill:#fff"></path><path d="M137.47,80.29l-.41-.42a3,3,0,0,1,4.22,0l-.41.41a2.4,2.4,0,0,0-3.4,0Z" style="fill:#fff"></path><path d="M140.45,80.7c-.13.14-.27.27-.41.41a1.23,1.23,0,0,0-1.74,0l-.41-.41A1.8,1.8,0,0,1,140.45,80.7Z" style="fill:#fff"></path><path d="M139.54,81.49a.37.37,0,0,1-.37.37.38.38,0,0,1,0-.75A.37.37,0,0,1,139.54,81.49Z" style="fill:#fff"></path></g><circle cx="117.6" cy="79.84" r="1.08" style="fill:#fff"></circle><circle cx="121" cy="79.84" r="1.08" style="fill:#fff"></circle><circle cx="124.41" cy="79.84" r="1.08" style="fill:#fff"></circle><path d="M126.73,79.84a1.08,1.08,0,1,1,2.16,0,1.08,1.08,0,0,1-2.16,0Z" style="fill:#fff"></path><path d="M130.14,79.84a1.08,1.08,0,1,1,1.08,1.08A1.08,1.08,0,0,1,130.14,79.84Z" style="fill:#fff"></path><path d="M256.79,82.23h-8.86V78.1h8.86Zm-8.36-.5h7.86V78.6h-7.86Z" style="fill:#fff"></path><rect x="248.69" y="78.82" width="5.67" height="2.69" style="fill:#fff"></rect><rect x="256.77" y="79.07" width="0.78" height="2.18" style="fill:#fff"></rect><polygon points="130.66 377.76 129.43 377.76 129.43 383.46 127.11 383.46 127.11 380.56 123 380.56 123 383.46 120.69 383.46 120.69 377.76 119.45 377.76 125.06 371.97 130.66 377.76" style="fill:#ebebeb"></polygon><rect x="241.92" y="371.97" width="13.52" height="1.93" style="fill:#ebebeb"></rect><rect x="241.92" y="376.75" width="13.52" height="1.93" style="fill:#ebebeb"></rect><rect x="241.92" y="381.53" width="13.52" height="1.93" style="fill:#ebebeb"></rect><path d="M130.4,140.28a8.71,8.71,0,0,1-2.62,1.1,9.11,9.11,0,1,1,2.62-1.1Z" style="fill:#dbdbdb"></path><path d="M128.39,131.5a2.77,2.77,0,1,1-2.77-2.77A2.77,2.77,0,0,1,128.39,131.5Z" style="fill:#fff"></path><path d="M130.4,139.14v1.14a8.71,8.71,0,0,1-2.62,1.1,9,9,0,0,1-7-1.1v-1.14a4.79,4.79,0,0,1,9.57,0Z" style="fill:#fff"></path><rect x="146.13" y="123.96" width="57.85" height="4.77" style="fill:#ebebeb"></rect><rect x="146.13" y="131.92" width="50.5" height="3.16" style="fill:#ebebeb"></rect><rect x="146.13" y="138" width="83.5" height="3.16" style="fill:#ebebeb"></rect><rect x="126.56" y="158.36" width="53.46" height="37.43" transform="translate(306.57 354.16) rotate(180)" style="fill:#ebebeb"></rect><path d="M132.8,169a4.43,4.43,0,1,0,4.43-4.43A4.43,4.43,0,0,0,132.8,169Z" style="fill:#dbdbdb"></path><polygon points="150.29 187.65 180.02 187.65 165.16 167.5 150.29 187.65" style="fill:#c7c7c7"></polygon><polygon points="138.64 187.75 163.18 187.75 150.91 174.63 138.64 187.75" style="fill:#dbdbdb"></polygon><rect x="126.56" y="187.73" width="53.46" height="8.07" style="fill:#dbdbdb"></rect><rect x="193.35" y="158.91" width="34.4" height="4.77" style="fill:#ebebeb"></rect><rect x="193.35" y="166.86" width="54.98" height="3.16" style="fill:#ebebeb"></rect><rect x="193.35" y="172.94" width="22.36" height="3.16" style="fill:#ebebeb"></rect><path d="M126.69,206.46a5.39,5.39,0,1,1,6.52,4A5.4,5.4,0,0,1,126.69,206.46Z" style="fill:#ebebeb"></path><g id="freepik--xsrjP0--inject-37"><path d="M131.19,207.33c-.14-.09-.26-.22-.45-.21s-.06-.05-.06-.09v-2.16c0-.05,0-.09.06-.12.55-.28.78-.82,1.12-1.29a2.17,2.17,0,0,0,.4-1.63c0-.16.05-.23.2-.27a.36.36,0,0,1,.41.13,2.89,2.89,0,0,1,.31.94,3.15,3.15,0,0,1-.1.81c0,.2-.07.39-.11.59.05,0,.11,0,.16,0H135c.26,0,.38.08.42.25a.48.48,0,0,1-.27.52s-.12,0-.13.08.08.06.12.09c.22.15.18.46-.07.64-.06.05-.18,0-.19.12s.11.07.16.12a.41.41,0,0,1-.17.63l-.11,0s-.06.05,0,.09a.36.36,0,0,1,0,.64l-.08,0a.45.45,0,0,1-.32.07h-2.85A.41.41,0,0,1,131.19,207.33Z" style="fill:#fff;fill-rule:evenodd"></path><path d="M128.49,206.06c0-.46,0-.92,0-1.37,0-.1,0-.14.13-.14h1.67c.11,0,.12,0,.12.13v2.76c0,.12,0,.15-.14.15h-1.63c-.13,0-.15,0-.15-.16C128.49,207,128.49,206.51,128.49,206.06Z" style="fill:#fff;fill-rule:evenodd"></path></g><path d="M138,206.46a5.4,5.4,0,1,1,6.53,4A5.41,5.41,0,0,1,138,206.46Z" style="fill:#FF9130"></path><path d="M146,205.85a6.84,6.84,0,0,1-2.75,2.62,6.9,6.9,0,0,1-2.76-2.62c-.68-1.37-.24-2.85.83-3.18,1.53-.46,1.93,2.21,1.93,2.21s.39-2.67,1.93-2.21C146.27,203,146.7,204.48,146,205.85Z" style="fill:#fff"></path><rect x="156.87" y="204.47" width="76.62" height="3.12" style="fill:#ebebeb"></rect><rect x="126.56" y="219.14" width="53.46" height="37.43" transform="translate(306.57 475.71) rotate(180)" style="fill:#ebebeb"></rect><circle cx="137.23" cy="229.78" r="4.43" style="fill:#dbdbdb"></circle><polygon points="150.29 248.43 180.02 248.43 165.16 228.28 150.29 248.43" style="fill:#c7c7c7"></polygon><polygon points="138.64 248.53 163.18 248.53 150.91 235.41 138.64 248.53" style="fill:#dbdbdb"></polygon><rect x="126.56" y="248.51" width="53.46" height="8.07" style="fill:#dbdbdb"></rect><rect x="193.35" y="219.68" width="34.4" height="4.77" style="fill:#ebebeb"></rect><rect x="193.35" y="227.64" width="54.98" height="3.16" style="fill:#ebebeb"></rect><rect x="193.35" y="233.72" width="22.36" height="3.16" style="fill:#ebebeb"></rect><path d="M126.69,267.24a5.4,5.4,0,1,1,6.52,4A5.4,5.4,0,0,1,126.69,267.24Z" style="fill:#ebebeb"></path><g id="freepik--xsrjp0--inject-37"><path d="M131.19,268.1c-.14-.09-.26-.22-.45-.2s-.06,0-.06-.09v-2.16s0-.1.06-.12c.55-.28.78-.83,1.12-1.29a2.18,2.18,0,0,0,.4-1.63.21.21,0,0,1,.2-.27.36.36,0,0,1,.41.13,2.89,2.89,0,0,1,.31.94,3.21,3.21,0,0,1-.1.81c0,.2-.07.39-.11.59.05,0,.11,0,.16,0H135c.26,0,.38.07.42.24a.5.5,0,0,1-.27.53s-.12,0-.13.07.08.07.12.1c.22.15.18.46-.07.64-.06,0-.18,0-.19.11s.11.07.16.12a.41.41,0,0,1-.17.64l-.11,0s-.06,0,0,.08a.36.36,0,0,1,0,.64l-.08.06a.51.51,0,0,1-.32.07h-2.85A.36.36,0,0,1,131.19,268.1Z" style="fill:#fff;fill-rule:evenodd"></path><path d="M128.49,266.83c0-.45,0-.91,0-1.37,0-.09,0-.14.13-.13h1.67c.11,0,.12,0,.12.13v2.76c0,.11,0,.15-.14.15h-1.63c-.13,0-.15-.05-.15-.17C128.49,267.75,128.49,267.29,128.49,266.83Z" style="fill:#fff;fill-rule:evenodd"></path></g><path d="M138,267.24a5.4,5.4,0,1,1,6.53,4A5.41,5.41,0,0,1,138,267.24Z" style="fill:#FF9130"></path><path d="M146,266.63a6.92,6.92,0,0,1-2.75,2.62,7,7,0,0,1-2.76-2.62c-.68-1.37-.24-2.86.83-3.18,1.53-.47,1.93,2.21,1.93,2.21s.39-2.68,1.93-2.21C146.27,263.77,146.7,265.26,146,266.63Z" style="fill:#fff"></path><rect x="156.87" y="265.25" width="76.62" height="3.12" style="fill:#ebebeb"></rect><rect x="126.56" y="279.91" width="53.46" height="37.43" transform="translate(306.57 597.26) rotate(180)" style="fill:#ebebeb"></rect><path d="M132.8,290.56a4.43,4.43,0,1,0,4.43-4.43A4.43,4.43,0,0,0,132.8,290.56Z" style="fill:#dbdbdb"></path><polygon points="150.29 309.21 180.02 309.21 165.16 289.06 150.29 309.21" style="fill:#c7c7c7"></polygon><polygon points="138.64 309.3 163.18 309.3 150.91 296.18 138.64 309.3" style="fill:#dbdbdb"></polygon><rect x="126.56" y="309.28" width="53.46" height="8.07" style="fill:#dbdbdb"></rect><rect x="193.35" y="280.46" width="34.4" height="4.77" style="fill:#ebebeb"></rect><rect x="193.35" y="288.41" width="54.98" height="3.16" style="fill:#ebebeb"></rect><rect x="193.35" y="294.5" width="22.36" height="3.16" style="fill:#ebebeb"></rect><path d="M126.69,328a5.39,5.39,0,1,1,6.52,4A5.39,5.39,0,0,1,126.69,328Z" style="fill:#ebebeb"></path><g id="freepik--xsrjp0--inject-37"><path d="M131.19,328.88c-.14-.09-.26-.22-.45-.2s-.06-.06-.06-.1v-2.15c0-.06,0-.1.06-.13.55-.27.78-.82,1.12-1.29a2.16,2.16,0,0,0,.4-1.63c0-.16.05-.23.2-.26a.36.36,0,0,1,.41.12,2.87,2.87,0,0,1,.31.95,3.21,3.21,0,0,1-.1.81c0,.19-.07.39-.11.59.05,0,.11,0,.16,0H135c.26,0,.38.07.42.24a.5.5,0,0,1-.27.53s-.12,0-.13.07.08.06.12.09a.39.39,0,0,1-.07.65c-.06,0-.18,0-.19.11s.11.07.16.12a.41.41,0,0,1-.17.63s-.08,0-.11.05-.06,0,0,.08a.36.36,0,0,1,0,.64l-.08.06a.51.51,0,0,1-.32.07h-2.85A.36.36,0,0,1,131.19,328.88Z" style="fill:#fff;fill-rule:evenodd"></path><path d="M128.49,327.61c0-.46,0-.91,0-1.37,0-.09,0-.14.13-.14h1.67c.11,0,.12,0,.12.14V329c0,.12,0,.15-.14.15h-1.63c-.13,0-.15,0-.15-.16C128.49,328.52,128.49,328.07,128.49,327.61Z" style="fill:#fff;fill-rule:evenodd"></path></g><path d="M138,328a5.4,5.4,0,1,1,6.53,4A5.4,5.4,0,0,1,138,328Z" style="fill:#FF9130"></path><path d="M146,327.41a6.92,6.92,0,0,1-2.75,2.62,7,7,0,0,1-2.76-2.62c-.68-1.38-.24-2.86.83-3.18,1.53-.47,1.93,2.21,1.93,2.21s.39-2.68,1.93-2.21C146.27,324.55,146.7,326,146,327.41Z" style="fill:#fff"></path><rect x="156.87" y="326.03" width="76.62" height="3.12" style="fill:#ebebeb"></rect><rect x="126.56" y="340.69" width="53.46" height="19.73" style="fill:#ebebeb"></rect><circle cx="137.23" cy="351.33" r="4.43" style="fill:#dbdbdb"></circle><polygon points="172.97 360.42 157.35 360.42 165.16 349.84 172.97 360.42" style="fill:#c7c7c7"></polygon><polygon points="154.15 360.42 147.67 360.42 150.91 356.96 154.15 360.42" style="fill:#dbdbdb"></polygon><rect x="193.35" y="341.24" width="34.4" height="4.77" style="fill:#ebebeb"></rect><rect x="193.35" y="349.19" width="54.98" height="3.16" style="fill:#ebebeb"></rect><rect x="193.35" y="355.27" width="22.36" height="3.16" style="fill:#ebebeb"></rect><polygon points="268.98 360.42 248.59 360.6 228.2 360.67 187.43 360.79 146.66 360.67 126.27 360.6 105.89 360.42 126.27 360.24 146.66 360.17 187.43 360.04 228.2 360.17 248.59 360.24 268.98 360.42" style="fill:#ebebeb"></polygon><circle cx="110.41" cy="73.83" r="10.13" style="fill:#FF9130"></circle><polygon points="109.23 79.73 104.78 75.23 106.28 73.76 108.88 76.39 114.27 67.93 116.04 69.06 109.23 79.73" style="fill:#fff"></polygon><path d="M106.41,82.73a26,26,0,0,0-.5,6.29l0,6.32L106,108l.12,25.3.09,50.62.17,101.22-.09,50.62,0,25.3,0,12.66V380a18.35,18.35,0,0,0,.87,6.13,13.37,13.37,0,0,0,3.18,5.23,13,13,0,0,0,5.21,3.19,18.67,18.67,0,0,0,6.17.64H128l25.3.05,50.62.24-50.62.24-25.3.05h-6.33a19.36,19.36,0,0,1-6.36-.64,13.74,13.74,0,0,1-5.48-3.34,14.07,14.07,0,0,1-3.35-5.47,19.26,19.26,0,0,1-.93-6.34v-6.32l0-12.66,0-25.3-.08-50.62.17-101.22.08-50.62.12-25.3.07-12.66,0-6.32A26,26,0,0,1,106.41,82.73Z" style="fill:#263238"></path></g><g id="freepik--Device--inject-37"><path d="M325.79,62.62H174.19a15.48,15.48,0,0,0-15.33,15.62V390.32a15.49,15.49,0,0,0,15.33,15.62h151.6a15.5,15.5,0,0,0,15.35-15.62V78.24A15.49,15.49,0,0,0,325.79,62.62Zm5.76,318.05c0,8.22-6.15,14.86-13.73,14.86H182.19c-7.6,0-13.75-6.64-13.75-14.86V90.07c0-16.73,6.15-17.55,13.75-17.55h27.17c1.57,0,2.86,1.8,2.86,4v1c0,5.21,2.86,5.23,6.36,5.23h62.83c3.53,0,6.36,0,6.36-5.23v-1c0-2.22,1.27-4,2.87-4h27.18c7.58,0,13.73,2.23,13.73,17.55Z" style="fill:#263238"></path><path d="M258.56,76.22H241.43a1.05,1.05,0,0,1-1.06-1.06h0a1.06,1.06,0,0,1,1.06-1.06h17.13a1.06,1.06,0,0,1,1.06,1.06h0A1.05,1.05,0,0,1,258.56,76.22Z" style="fill:#fff"></path><path d="M331.55,90.07v290.6c0,8.22-6.15,14.86-13.73,14.86H182.19c-7.6,0-13.75-6.64-13.75-14.86V90.07c0-16.73,6.15-17.55,13.75-17.55h27.17c1.57,0,2.86,1.8,2.86,4v1c0,5.21,2.86,5.23,6.36,5.23h62.83c3.53,0,6.36,0,6.36-5.23v-1c0-2.22,1.27-4,2.87-4h27.18C325.4,72.52,331.55,74.75,331.55,90.07Z" style="fill:#fff"></path><path d="M331.55,90.07v21.69H168.43V90.07c0-16.73,6.15-17.55,13.76-17.55h27.17c1.58,0,2.87,1.8,2.87,4v1c0,5.21,2.85,5.23,6.35,5.23H281.4c3.54,0,6.37,0,6.37-5.23v-1c0-2.22,1.27-4,2.88-4h27.16C325.4,72.52,331.55,74.75,331.55,90.07Z" style="fill:#FF9130"></path><polygon points="183.89 101.17 179.07 96.66 183.89 92.14 184.64 92.94 180.67 96.66 184.64 100.37 183.89 101.17" style="fill:#fff"></polygon><path d="M316.79,101.52h-3.3v-1.15a.23.23,0,0,0-.13-.21A2.71,2.71,0,0,1,313,100a.23.23,0,0,0-.24,0l-1,.58-1.65-2.86,1-.58a.24.24,0,0,0,.11-.22,1.34,1.34,0,0,1,0-.21,1.48,1.48,0,0,1,0-.21.24.24,0,0,0-.11-.21l-1-.58,1.65-2.86,1,.58a.23.23,0,0,0,.24,0,2.71,2.71,0,0,1,.37-.21.23.23,0,0,0,.13-.21V91.79h3.3v1.15a.23.23,0,0,0,.13.21,3.47,3.47,0,0,1,.37.21.23.23,0,0,0,.24,0l1-.58,1.65,2.86-1,.58a.22.22,0,0,0-.1.22v.41a.23.23,0,0,0,.1.22l1,.58-1.65,2.86-1-.58a.25.25,0,0,0-.25,0,2.6,2.6,0,0,1-.36.21.23.23,0,0,0-.13.21Zm-2.55-.75H316v-.4a1,1,0,0,1,.54-.88,1.69,1.69,0,0,0,.29-.17,1,1,0,0,1,1,0l.35.2.91-1.56-.36-.2a1,1,0,0,1-.48-.91v-.34a1,1,0,0,1,.48-.9l.35-.2-.9-1.56-.35.2a1,1,0,0,1-1,0,2.28,2.28,0,0,0-.3-.17,1,1,0,0,1-.54-.88v-.4h-1.8v.4a1,1,0,0,1-.54.88,1.78,1.78,0,0,0-.3.17,1,1,0,0,1-1,0l-.35-.2-.9,1.56.35.2a1,1,0,0,1,.49.91.86.86,0,0,0,0,.16.91.91,0,0,0,0,.17,1,1,0,0,1-.49.91l-.35.2.9,1.56.35-.2a1,1,0,0,1,1,0,2.28,2.28,0,0,0,.3.17,1,1,0,0,1,.54.88Zm.9-1.65a2.47,2.47,0,1,1,2.46-2.47A2.48,2.48,0,0,1,315.14,99.12Zm0-4.18a1.72,1.72,0,1,0,1.71,1.71A1.72,1.72,0,0,0,315.14,94.94Z" style="fill:#fff"></path><g id="freepik--u5zjqx--inject-37"><path d="M204.67,79.05l-.26.26-.15.15a3.56,3.56,0,0,0-2.53-1,3.52,3.52,0,0,0-2.53,1l-.15-.14-.25-.26h0l.33-.3a3.56,3.56,0,0,1,.77-.48,4,4,0,0,1,1-.35c.17,0,.34,0,.51-.06h.45l.34,0a4.45,4.45,0,0,1,.94.23,4.51,4.51,0,0,1,.63.29,6.42,6.42,0,0,1,.6.42l.28.25Z" style="fill:#fff"></path><path d="M200,80.29l-.42-.42A3,3,0,0,1,201.3,79a2.93,2.93,0,0,1,2.54.84l-.42.41a2.39,2.39,0,0,0-3.39,0Z" style="fill:#fff"></path><path d="M203,80.7l-.41.41a1.23,1.23,0,0,0-1.74,0l-.41-.41A1.8,1.8,0,0,1,203,80.7Z" style="fill:#fff"></path><path d="M202.1,81.49a.38.38,0,0,1-.75,0,.38.38,0,1,1,.75,0Z" style="fill:#fff"></path></g><circle cx="180.15" cy="79.84" r="1.08" style="fill:#fff"></circle><path d="M182.48,79.84a1.08,1.08,0,1,1,1.08,1.08A1.08,1.08,0,0,1,182.48,79.84Z" style="fill:#fff"></path><circle cx="186.96" cy="79.84" r="1.08" style="fill:#fff"></circle><path d="M189.29,79.84a1.08,1.08,0,1,1,1.08,1.08A1.08,1.08,0,0,1,189.29,79.84Z" style="fill:#fff"></path><path d="M192.69,79.84a1.08,1.08,0,1,1,2.16,0,1.08,1.08,0,1,1-2.16,0Z" style="fill:#fff"></path><path d="M319.34,82.23h-8.85V78.1h8.85Zm-8.35-.5h7.85V78.6H311Z" style="fill:#fff"></path><rect x="311.25" y="78.82" width="5.67" height="2.69" style="fill:#fff"></rect><rect x="319.32" y="79.07" width="0.78" height="2.18" style="fill:#fff"></rect><polygon points="193.22 377.76 191.98 377.76 191.98 383.46 189.66 383.46 189.66 380.56 185.56 380.56 185.56 383.46 183.24 383.46 183.24 377.76 182 377.76 187.61 371.97 193.22 377.76" style="fill:#ebebeb"></polygon><rect x="304.48" y="371.97" width="13.52" height="1.93" style="fill:#ebebeb"></rect><rect x="304.48" y="376.75" width="13.52" height="1.93" style="fill:#ebebeb"></rect><rect x="304.48" y="381.53" width="13.52" height="1.93" style="fill:#ebebeb"></rect><rect x="168.44" y="149.18" width="163.09" height="114.21" transform="translate(499.96 412.58) rotate(180)" style="fill:#ebebeb"></rect><path d="M187.5,181.65A13.51,13.51,0,1,0,201,168.14,13.51,13.51,0,0,0,187.5,181.65Z" style="fill:#dbdbdb"></path><polygon points="240.85 238.55 331.55 238.55 286.2 177.08 240.85 238.55" style="fill:#c7c7c7"></polygon><polygon points="205.3 238.84 280.18 238.84 242.74 198.81 205.3 238.84" style="fill:#dbdbdb"></polygon><rect x="168.44" y="238.79" width="163.09" height="24.61" style="fill:#dbdbdb"></rect><path d="M193,323.62a8.91,8.91,0,0,1-2.63,1.09,9.09,9.09,0,1,1,6.69-11A9.11,9.11,0,0,1,193,323.62Z" style="fill:#dbdbdb"></path><path d="M190.94,314.83a2.77,2.77,0,1,1-2.77-2.76A2.77,2.77,0,0,1,190.94,314.83Z" style="fill:#fff"></path><path d="M193,322.47v1.15a8.91,8.91,0,0,1-2.63,1.09,9,9,0,0,1-6.94-1.1v-1.14a4.79,4.79,0,0,1,9.57,0Z" style="fill:#fff"></path><rect x="208.69" y="307.3" width="74.4" height="4.77" style="fill:#ebebeb"></rect><rect x="208.69" y="315.25" width="94.98" height="3.16" style="fill:#ebebeb"></rect><rect x="208.69" y="321.33" width="32.35" height="3.16" style="fill:#ebebeb"></rect><rect x="168.44" y="332.52" width="163.09" height="27.9" style="fill:#ebebeb"></rect><path d="M213.72,360.41H188.29a13.51,13.51,0,0,1,25.43,0Z" style="fill:#dbdbdb"></path><circle cx="184.64" cy="275.5" r="5.4" style="fill:#ebebeb"></circle><g id="freepik--xsrjp0--inject-37"><path d="M183.9,277.64c-.14-.09-.26-.22-.46-.2s-.05-.05-.05-.09v-2.16c0-.05,0-.09.06-.12a3.58,3.58,0,0,0,1.12-1.29,2.18,2.18,0,0,0,.4-1.63c0-.16.05-.24.2-.27a.36.36,0,0,1,.41.13,3.15,3.15,0,0,1,.31.94,3.66,3.66,0,0,1-.1.81c0,.2-.07.39-.11.59,0,0,.11,0,.16,0h1.82c.26,0,.38.07.42.24a.49.49,0,0,1-.27.53s-.13,0-.13.07.08.07.12.1c.22.15.18.46-.07.64-.07,0-.18,0-.19.11s.11.07.16.13a.41.41,0,0,1-.17.63l-.11,0s-.06,0,0,.09a.36.36,0,0,1,0,.64l-.08.05a.51.51,0,0,1-.32.07c-.95,0-1.9,0-2.86,0A.32.32,0,0,1,183.9,277.64Z" style="fill:#fff;fill-rule:evenodd"></path><path d="M181.19,276.38c0-.46,0-.92,0-1.37,0-.1,0-.14.13-.14H183c.11,0,.12,0,.12.13v2.76c0,.12,0,.15-.15.15q-.81,0-1.62,0c-.13,0-.15-.05-.15-.16C181.2,277.29,181.19,276.83,181.19,276.38Z" style="fill:#fff;fill-rule:evenodd"></path></g><path d="M190.73,276.78a5.4,5.4,0,1,1,6.53,4A5.41,5.41,0,0,1,190.73,276.78Z" style="fill:#FF9130"></path><path d="M198.73,276.17a6.84,6.84,0,0,1-2.75,2.62,6.9,6.9,0,0,1-2.76-2.62c-.68-1.37-.25-2.85.83-3.18,1.53-.46,1.93,2.21,1.93,2.21s.39-2.67,1.93-2.21C199,273.32,199.41,274.8,198.73,276.17Z" style="fill:#fff"></path><rect x="209.58" y="274.79" width="76.62" height="3.12" style="fill:#ebebeb"></rect><polygon points="168.44 293.4 188.82 293.22 209.21 293.15 249.98 293.03 290.75 293.15 311.14 293.22 331.53 293.4 311.14 293.58 290.75 293.65 249.98 293.78 209.21 293.65 188.82 293.58 168.44 293.4" style="fill:#ebebeb"></polygon></g><g id="freepik--Plant--inject-37"><path d="M89.48,346.13c-9.92,13.43-20.26,29-22.78,45.87a.23.23,0,0,0,.44.08,101,101,0,0,1,4.38-13.48c6.52-1.8,12.92-3.27,16.35-9.74,3.49-6.66,3-15.33,2.38-22.58C90.21,345.89,89.68,345.87,89.48,346.13Z" style="fill:#FF9130"></path><path d="M71.62,378.47c4.46-10,10.18-20,17.45-28.26.05,0,.12,0,.08.08-4.76,5.86-8.38,12.23-11.91,18.72,3.28-3.33,6.88-6.32,10-9.85.06-.07.16,0,.1.1-3.09,3.7-6.46,7.73-10.48,10.47q-1.62,3-3.28,6c.27-.15.55-.29.83-.43a0,0,0,0,1,0,.08c-.3.15-.61.32-.92.45-.53.95-1,1.89-1.58,2.83C71.82,378.86,71.53,378.68,71.62,378.47Z" style="fill:#263238"></path><path d="M74.94,375a58.59,58.59,0,0,0,7.61-5.08c.07,0,.16,0,.09.09a40.4,40.4,0,0,1-7.59,5.18A.11.11,0,0,1,74.94,375Z" style="fill:#263238"></path><path d="M65.55,389.49c0,.21.37.2.37,0,0-5.55,0-11.12.08-16.7,1.43-2.86,4.48-4.45,6.6-6.75a29.58,29.58,0,0,0,4-5.51,39.32,39.32,0,0,0,4.59-15.3c.59-5.93-1.66-25.51-4.16-24.83-1.3.35-5.5,10.05-6.61,13.25a91.81,91.81,0,0,0-4,16.26C64.39,363,64.56,376.36,65.55,389.49Z" style="fill:#FF9130"></path><path d="M65.51,365.56l0,0c.3-7,1.88-14.1,3.36-20.91,1.6-7.34,3.46-14.24,7.24-20.78a.11.11,0,1,1,.18.11,77.82,77.82,0,0,0-5.81,16c.26-.4.56-.77.83-1.15.1-.14.34,0,.24.15a10.19,10.19,0,0,1-1.18,1.66s0,0-.05,0c-1.3,5.25-2.23,10.61-3,16l.18-.21a.05.05,0,0,1,.08.06c-.1.18-.21.36-.32.53-.4,2.72-.77,5.43-1.15,8.11,4.84-4.13,9-9,11.29-15,0,0,.06,0,0,0-2.28,6.23-5.88,11.76-11.41,15.54-.1.72-.2,1.44-.31,2.16,0,.15-.26.11-.26,0,0-.64,0-1.28.06-1.92A.16.16,0,0,1,65.51,365.56Z" style="fill:#263238"></path><path d="M67.79,355.39a111.48,111.48,0,0,0,9.85-17c0-.06.15,0,.12.05A55.22,55.22,0,0,1,68,355.54C67.89,355.64,67.72,355.51,67.79,355.39Z" style="fill:#263238"></path><path d="M72.7,337.07c1.53-2.71,3.14-5.34,4.58-8.1,0-.08.15,0,.12.06a42.09,42.09,0,0,1-4.46,8.18C72.83,337.35,72.61,337.23,72.7,337.07Z" style="fill:#263238"></path><path d="M72.1,338.25a0,0,0,0,1,0,.05A0,0,0,0,1,72.1,338.25Z" style="fill:#263238"></path><path d="M61.8,373.45a56.47,56.47,0,0,1-1.3,10.93q.09.58.18,1.2a52.63,52.63,0,0,0,2-12.19.37.37,0,0,0,0-.37h0a80.21,80.21,0,0,0-1.23-16.51c-1.72-10.19-5.47-20-12.58-27.62a.51.51,0,0,0-.78.16c-2.87,7.3-1.87,16,.57,23.28a42.62,42.62,0,0,0,5.64,11.06C56.71,366.8,59.82,369.71,61.8,373.45Z" style="fill:#FF9130"></path><path d="M49.68,332.3c6.74,10.93,11.43,23.9,12,36.81,0,.23-.37.29-.41.06-.16-1.16-.33-2.31-.52-3.46h0a44.34,44.34,0,0,1-7.65-8.82c0-.06,0-.13.1-.08a93.21,93.21,0,0,0,7.43,8.08c-.49-2.85-1.06-5.66-1.73-8.43l-.54-.63c-.11-.14.08-.34.2-.2l.16.18a96.65,96.65,0,0,0-3.52-11.18c-1.71-2.05-3.63-3.82-4.88-6.28a.05.05,0,0,1,.09-.06c1,1.41,2,2.83,3.11,4.14.46.52,1,1,1.43,1.52a85.82,85.82,0,0,0-5.52-11.5A.15.15,0,0,1,49.68,332.3Z" style="fill:#263238"></path><path d="M51,345.79c2.18,2.93,4.66,5.72,6.69,8.75.06.09-.07.18-.14.11a44.41,44.41,0,0,1-6.69-8.78C50.84,345.78,51,345.7,51,345.79Z" style="fill:#263238"></path><path d="M58,355.22l.1.09c.06.07,0,.17-.1.1l-.1-.09C57.87,355.26,58,355.16,58,355.22Z" style="fill:#263238"></path><path d="M39.13,353.32A33.57,33.57,0,0,0,46.24,370,17.68,17.68,0,0,0,52,374.5c2.5,1.23,5.11,2.66,7.7,3.67a50.74,50.74,0,0,1,2.72,9.68l.25-.86C61,372.75,51.8,360.57,40,352.76A.57.57,0,0,0,39.13,353.32Z" style="fill:#FF9130"></path><path d="M43.2,357.53c-.08-.08,0-.23.12-.16a48.17,48.17,0,0,1,15,18.52c.09.19-.18.36-.29.17-.55-1-1.11-1.9-1.68-2.81h0c-2.7-.51-5.24-2.4-7.24-4.2-.06-.05,0-.13.08-.08a16.41,16.41,0,0,0,3.4,2.39A35.7,35.7,0,0,0,56,372.71q-1.48-2.37-3.12-4.57a31.46,31.46,0,0,1-8.09-4.55c-.07,0,0-.18.08-.13a78.85,78.85,0,0,0,7.52,4,68.89,68.89,0,0,0-5.31-6.19c-.92-.48-1.84-1-2.73-1.48-.07,0,0-.17.06-.14a10.39,10.39,0,0,1,2.09,1C45.47,359.62,44.37,358.56,43.2,357.53Z" style="fill:#263238"></path><path d="M43.45,362.44a3.72,3.72,0,0,1,.45.33c.05,0,0,.09,0,.07a2.27,2.27,0,0,1-.48-.27C43.29,362.52,43.37,362.39,43.45,362.44Z" style="fill:#263238"></path><polygon points="81.07 418.7 48.76 418.7 51.37 389.27 51.94 382.79 77.89 382.79 78.46 389.27 81.07 418.7" style="fill:#455a64"></polygon><polygon points="78.46 389.27 51.37 389.27 51.94 382.79 77.89 382.79 78.46 389.27" style="fill:#263238"></polygon><rect x="50.4" y="378.25" width="29.04" height="6.42" style="fill:#455a64"></rect></g><g id="freepik--Character--inject-37"><path d="M329.77,440.29c2,.65,59.33-.09,61.49-1.51.84-.52,1.21-8.88,1.38-19v-.32c0-2.09.07-4.23.07-6.41,0-.3,0-.6,0-.89.09-14.6-.15-29.74-.15-29.74l-38.34.38,1.15,29.46.05,1.17.23,6.09,0,.63s-21.82,10.1-24,11.91S327.76,439.65,329.77,440.29Z" style="fill:#c95f50"></path><path d="M329.77,440.29c2,.65,59.33-.09,61.49-1.51.84-.52,1.21-8.88,1.38-19v-.32c0-2.09.07-4.23.07-6.41,0-.3,0-.6,0-.89l-37.34.1.05,1.17.23,6.09,0,.63s-21.82,10.1-24,11.91S327.76,439.65,329.77,440.29Z" style="fill:#ebebeb"></path><path d="M329.77,440.29c1.24.4,23.44.27,40.83-.22,10.86-.3,19.83-.74,20.66-1.29s1.2-8.64,1.37-18.57c0-.14,0-.28,0-.42s0-.22,0-.33l-37,.07,0,.64s-21.82,10.09-24,11.9S327.76,439.65,329.77,440.29Z" style="fill:#FF9130"></path><path d="M330.39,438.06c9.66-.36,48.65-.91,58.23-.54.08,0,.08.06,0,.06-9.57.57-48.57.81-58.23.64C330.19,438.21,330.18,438.07,330.39,438.06Z" style="fill:#263238"></path><path d="M351.54,419.69c3.79-.76,8.45-.23,11.39,2.44.12.1,0,.26-.15.23a53.42,53.42,0,0,0-11.22-2.19A.24.24,0,0,1,351.54,419.69Z" style="fill:#263238"></path><path d="M348.82,421.38c3.79-.76,8.45-.23,11.39,2.44.11.1,0,.26-.16.23a53.46,53.46,0,0,0-11.21-2.19A.24.24,0,0,1,348.82,421.38Z" style="fill:#263238"></path><path d="M346.09,423.07c3.8-.76,8.46-.23,11.4,2.44.11.1,0,.26-.16.23a53.46,53.46,0,0,0-11.21-2.19A.24.24,0,0,1,346.09,423.07Z" style="fill:#263238"></path><path d="M348.26,416.86c2.72,2.05,6.23,2.86,9.39,4,.32.12.58-.19.59-.48a.1.1,0,0,0,.08-.14,20.31,20.31,0,0,0-6-8.63c-1.61-1.31-4.4-2.2-5.87-.13S346.68,415.66,348.26,416.86Zm-1-3.05c-.73-4.16,3.78-2,4.92-1a22,22,0,0,1,2.05,2.16c1.33,1.56,2.42,3.28,3.59,5-1.51-.64-3.07-1.15-4.61-1.74C351.38,417.46,347.66,416.11,347.26,413.81Z" style="fill:#263238"></path><path d="M370.94,414.27c-.95-2.36-3.87-2.14-5.73-1.23a20.32,20.32,0,0,0-7.8,7,.1.1,0,0,0,0,.15c0,.29.12.65.47.61,3.33-.37,6.93-.35,10.05-1.72C369.8,418.3,371.84,416.5,370.94,414.27Zm-8.08,5c-1.63.22-3.27.36-4.89.64a61.18,61.18,0,0,1,4.64-4,22.59,22.59,0,0,1,2.49-1.62c1.34-.72,6.22-1.76,4.56,2.12C368.74,418.51,364.81,419,362.86,419.24Z" style="fill:#263238"></path><path d="M370.6,440.07c10.86-.3,19.83-.74,20.66-1.29s1.2-8.64,1.37-18.57C388.18,424.18,377.12,434.05,370.6,440.07Z" style="fill:#263238"></path><path d="M404.34,217.3s-8.61,96.87-10,104.26c-.32,1.68-.53,10.84-.66,22.6-.3,25.68-.12,72-.12,72H353.14s1.2-80.24,3-95S369.36,217.3,369.36,217.3Z" style="fill:#37474f"></path><path d="M355,409.11c6.3-.13,4.49-.18,10.8-.24,3.09,0,23.36-.21,26.25.27.06,0,.06.12,0,.13-2.89.47-23.16.3-26.25.27-6.31-.06-4.5-.11-10.8-.25A.09.09,0,1,1,355,409.11Z" style="fill:#263238"></path><path d="M385.87,363.24q.08-8.79.13-17.58c.05-5.68,0-11.36.31-17,.54-11.48,2.87-22.77,4.53-34.13s3-22.76,4.29-34.17c1.41-12.8,2.65-25.62,4-38.43,0-.09.15-.08.14,0-1.9,22.88-4,45.75-7.2,68.49q-1.17,8.48-2.58,16.93c-.94,5.7-1.88,11.41-2.33,17.17s-.51,11.31-.57,17q-.09,8.79-.17,17.57c-.13,13-.25,33-.38,46.05a.2.2,0,0,1-.39,0C385.7,393.47,385.79,374.85,385.87,363.24Z" style="fill:#263238"></path><path d="M412.86,217.3s-17.13,96.87-18.53,104.26c-.32,1.68-.53,10.84-.66,22.6v0L374.41,217.3Z" style="fill:#263238"></path><path d="M376.69,443.71c2.05.5,59.18-4.3,61.24-5.86.79-.59.57-9,0-19.05l0-.32c-.1-2.08-.23-4.22-.38-6.39,0-.3,0-.6-.05-.9-1-14.56-2.26-29.65-2.26-29.65L397,384.64l3.24,29.3.12,1.16.66,6.07.07.62s-21,11.62-23.13,13.58S374.64,443.21,376.69,443.71Z" style="fill:#c95f50"></path><path d="M376.69,443.71c2.05.5,59.18-4.3,61.24-5.86.79-.59.57-9,0-19.05l0-.32c-.1-2.08-.23-4.22-.38-6.39,0-.3,0-.6-.05-.9l-37.24,2.75.12,1.16.66,6.07.07.62s-21,11.62-23.13,13.58S374.64,443.21,376.69,443.71Z" style="fill:#ebebeb"></path><path d="M376.69,443.71c2.05.5,59.18-4.3,61.24-5.86.79-.59.57-9,0-19.05l0-.32L401,421.17l.07.62s-21,11.62-23.13,13.58S374.64,443.21,376.69,443.71Z" style="fill:#FF9130"></path><path d="M377.15,441.44c9.61-1.05,48.47-4.36,58.05-4.66.08,0,.08.05,0,.06-9.5,1.24-48.38,4.24-58,4.76C377,441.61,377,441.46,377.15,441.44Z" style="fill:#263238"></path><path d="M397,421.62c3.73-1,8.41-.83,11.54,1.62.12.1,0,.27-.14.24A53.45,53.45,0,0,0,397,422.1.24.24,0,0,1,397,421.62Z" style="fill:#263238"></path><path d="M394.35,423.5c3.73-1,8.42-.84,11.54,1.62.12.1,0,.27-.14.24A52.74,52.74,0,0,0,394.41,424,.25.25,0,0,1,394.35,423.5Z" style="fill:#263238"></path><path d="M391.76,425.38c3.73-1,8.41-.84,11.53,1.62.12.09,0,.27-.14.24a53.38,53.38,0,0,0-11.34-1.39A.24.24,0,0,1,391.76,425.38Z" style="fill:#263238"></path><path d="M393.48,419c2.86,1.86,6.42,2.42,9.64,3.32.34.09.57-.24.56-.53a.09.09,0,0,0,.07-.14,20.25,20.25,0,0,0-6.56-8.19c-1.69-1.2-4.54-1.89-5.86.29S391.81,417.94,393.48,419Zm-1.22-3c-1-4.11,3.63-2.3,4.84-1.37a23.08,23.08,0,0,1,2.19,2,60.5,60.5,0,0,1,3.94,4.7c-1.56-.53-3.15-.93-4.72-1.41C396.63,419.41,392.82,418.32,392.26,416.06Z" style="fill:#263238"></path><path d="M415.92,414.83c-1.11-2.29-4-1.86-5.81-.82a20.26,20.26,0,0,0-7.28,7.57.1.1,0,0,0,.07.15c0,.28.16.63.5.57,3.3-.6,6.89-.84,9.9-2.43C415.06,418.94,417,417,415.92,414.83Zm-7.71,5.54c-1.61.33-3.23.58-4.83,1a61.14,61.14,0,0,1,4.34-4.33,23,23,0,0,1,2.37-1.79c1.29-.82,6.08-2.2,4.7,1.79C414,419.23,410.13,420,408.21,420.37Z" style="fill:#263238"></path><path d="M399.4,418.33l40.37-1.71s-11-88.59-11.23-94c-.52-14.12-9.91-105.32-9.91-105.32H369.32s3.11,21,8.43,34.4a62,62,0,0,1,10.32,4.71s4.61,60.31,4.79,67.83C393.2,339.08,399.4,418.33,399.4,418.33Z" style="fill:#37474f"></path><path d="M400.47,410.94c6.3-.4,4.48-.38,10.78-.71,3.08-.16,23.34-1.19,26.24-.84.06,0,.07.12,0,.13-2.86.6-23.13,1.28-26.21,1.38-6.3.21-4.5.08-10.8.22C400.36,411.12,400.35,410.94,400.47,410.94Z" style="fill:#263238"></path><path d="M415,222.67c1.83,23,3.71,45.94,5.81,68.89s4.58,46,7.58,68.94c1.68,12.81,3.54,30.85,5.53,43.62,0,.08-.12.12-.13,0-4.07-22.68-7.06-50.81-9.61-73.71s-4.62-45.84-6.48-68.8c-1-13-2-26-3-39C414.71,222.49,415,222.49,415,222.67Z" style="fill:#263238"></path><path d="M376,250.75a77.07,77.07,0,0,1,12.08,5.63.14.14,0,0,1-.12.25c-4.06-1.75-8.21-3.42-12.18-5.39A.27.27,0,0,1,376,250.75Z" style="fill:#263238"></path><path d="M374.7,222.84c0-.14.26-.17.26,0a132.65,132.65,0,0,0,.68,13.59c.19,2.1,1.87,13.68,5.51,12.83.6-.14.91-.74,1-1.65a15,15,0,0,0-.48-3.56c-.41-2.42-.73-4.85-.94-7.3a66,66,0,0,1,.15-13.7.12.12,0,1,1,.23,0A125.91,125.91,0,0,0,382.23,242c.45,3,2,7.54-1.18,8s-5.28-7.12-5.67-9.2A68.92,68.92,0,0,1,374.7,222.84Z" style="fill:#263238"></path><path d="M381.05,249.56a19.37,19.37,0,0,1,.82,2.4,5.56,5.56,0,0,1,.34,2,.15.15,0,0,1-.26,0,7.18,7.18,0,0,1-.84-1.92c-.28-.74-.57-1.48-.82-2.23A.4.4,0,0,1,381.05,249.56Z" style="fill:#263238"></path><path d="M397.49,226.63a6.76,6.76,0,0,1,.15-1.5.08.08,0,0,1,.15,0,5.65,5.65,0,0,1,.17,1.3c.05.5.12,1,.17,1.49a22.07,22.07,0,0,0,.53,3,10.81,10.81,0,0,0,2.78,5,14.44,14.44,0,0,0,4.69,3.09,52.36,52.36,0,0,0,6,1.73c.09,0,.06.15,0,.15a17.37,17.37,0,0,1-6.52-1.28,14.07,14.07,0,0,1-4.9-3.13,10.93,10.93,0,0,1-2.85-5.13,15.42,15.42,0,0,1-.39-3A13.78,13.78,0,0,1,397.49,226.63Z" style="fill:#263238"></path><path d="M388.73,178.12c-12.91,13.29-29,22-36.49,20.38-5.83-1.27-20.68-13.3-30.51-24.61-2-2.27,21.88-16.67,23.06-14.92,3.47,5.18,11.56,18.58,12.56,18.28,1.3-.41,17.61-6.39,29.14-11.15C400.4,160.36,395.79,170.85,388.73,178.12Z" style="fill:#c95f50"></path><path d="M322.3,174.37c-2.3-1.85-12.08-11.24-14.22-14.46s-7.62-12.94-5.31-14.83,4.13.83,4.13.83-1.66-4.47.83-6.16,5.2,2.63,5.2,2.63-1.38-4.72,1.23-6.22,4.6,3.29,4.6,3.29-1.46-4.25,1.21-4.59c3.21-.41,5,7.74,7.64,11.12.59.77,13.2,14.7,13.2,14.7Z" style="fill:#c95f50"></path><path d="M318.58,139c1.34,6,3,8.38,7.22,12.66.08.08,0,.22-.12.15-4.55-3.82-7-6.52-7.39-12.76C318.27,138.79,318.52,138.76,318.58,139Z" style="fill:#263238"></path><path d="M312.83,141.9c1.93,6.1,3.67,8.7,7.8,13.52.06.06-.05.17-.12.11-4.44-4.38-6.84-7.14-8-13.48C312.49,141.76,312.74,141.62,312.83,141.9Z" style="fill:#263238"></path><path d="M307.12,146.15c2.3,5.76,4.08,8.7,8.69,12.86a.12.12,0,0,1-.15.18c-5.11-3.78-7.36-7.43-8.71-12.95C306.86,145.86,307,145.78,307.12,146.15Z" style="fill:#263238"></path><rect x="197.37" y="119.28" width="163.12" height="37.43" transform="translate(4.01 -7.82) rotate(1.62)" style="fill:#fff"></rect><path d="M359.93,159l-81.42-2-81.65-2.14h-.43v-.44l1-37.42,0-.49h.5l163,4.92h.18v.18Zm0,0,.87-37.42.18.19-163.06-4.29.51-.49-1.12,37.41-.42-.45,81.4,2.46Z" style="fill:#ebebeb"></path><path d="M221.64,146.2a8.9,8.9,0,0,1-2.66,1,9.07,9.07,0,1,1,2.66-1Z" style="fill:#dbdbdb"></path><path d="M219.87,137.36a2.77,2.77,0,1,1-2.69-2.84A2.76,2.76,0,0,1,219.87,137.36Z" style="fill:#fff"></path><path d="M221.67,145.06l0,1.14a8.9,8.9,0,0,1-2.66,1,9,9,0,0,1-6.91-1.3l0-1.13a4.79,4.79,0,0,1,9.57.27Z" style="fill:#fff"></path><rect x="237.74" y="131.14" width="57.85" height="4.77" transform="translate(3.88 -7.48) rotate(1.62)" style="fill:#ebebeb"></rect><rect x="237.54" y="138.99" width="50.5" height="3.16" transform="translate(4.07 -7.36) rotate(1.62)" style="fill:#ebebeb"></rect><rect x="237.36" y="145.54" width="83.5" height="3.16" transform="translate(4.26 -7.82) rotate(1.62)" style="fill:#ebebeb"></rect><path d="M345.71,161.37s-2.66-7.22-4.52-10.13-12.82-11.2-14.74-8.94c-2.49,2.92,2.89,9,5.91,11.56,0,0-5.75,6.76-2.83,11.92S345.71,161.37,345.71,161.37Z" style="fill:#c95f50"></path><path d="M326,143.33c-.35,4.3,3.84,7.47,6.58,10.22a.36.36,0,0,1-.08.58c-2.22,3-4.49,7.86-3.24,11.58a.09.09,0,0,1-.16.08c-1.89-3.82-.05-8.79,2.59-11.91-2.85-2.77-6.91-6.14-5.73-10.56C326,143.3,326,143.3,326,143.33Z" style="fill:#263238"></path><path d="M376.68,189.14,364.86,174s15.92-7.55,24.62-9.42,9.57,1.81,3,9.66A117,117,0,0,1,376.68,189.14Z" style="fill:#FF9130"></path><path d="M379.71,185.84c-1.59-2.3-8.9-10.83-10.84-12.85a.08.08,0,0,0-.12.1c1.67,2.25,8.85,10.88,10.86,12.83A.06.06,0,0,0,379.71,185.84Z" style="fill:#263238"></path><path d="M424.16,242c-.15.15-60.56-4-61.07-4.64-.7-.93,17.61-65.39,24.39-73,1.45-1.64,5.86-1.8,9.54-1.08a17.27,17.27,0,0,1,2.83.79l.09,0a6.88,6.88,0,0,1,2,1.18c9.76,9,16.4,38.49,17.81,47.3C422.13,227.09,424.7,241.47,424.16,242Z" style="fill:#FF9130"></path><path d="M381.27,176.66q-1.61,4.16-3.1,8.34c.31-1.44.62-2.89.92-4.33a.05.05,0,0,0-.1,0,42.17,42.17,0,0,0-1.39,6c-2,5.6-3.8,11.24-5.43,17-.73,2.59-1.35,5.21-2.06,7.81,0,.09.12.13.15,0,.68-2.27,1.48-4.5,2.2-6.76s1.42-4.52,2.15-6.77q2.17-6.75,4.33-13.52c.81-2.56,1.62-5.13,2.45-7.68C381.42,176.61,381.3,176.58,381.27,176.66Z" style="fill:#263238"></path><path d="M389.26,173.06c3.07.51,8.6-4.88,10.41-8.76.12-.27-.45-3-1-6.24-.32-2-.63-4.23-.77-6.29l-12.7,4a33.12,33.12,0,0,1,1.77,7.82,4.71,4.71,0,0,1,0,.85s0,.08,0,.14C386.78,166.19,386.29,172.56,389.26,173.06Z" style="fill:#c95f50"></path><path d="M397.47,151.91c-.12,2.71-1.14,11.84-9.21,12.64a7.47,7.47,0,0,1-1.33,0c0-.06,0-.1,0-.14a4.71,4.71,0,0,0,0-.85,33.12,33.12,0,0,0-1.77-7.82Z" style="fill:#263238"></path><path d="M384.26,132.43s-4.07,1.22-5.19,5.1-.65,8.14-.33,8.38S384.26,132.43,384.26,132.43Z" style="fill:#263238"></path><path d="M401,139.24c.85,4.72-3.12,17.59-6.71,20.14-5.2,3.69-12.94,3.19-15.88-2.89-2.85-5.89,2.62-22.57,6.55-24.81C390.75,128.39,399.74,132.27,401,139.24Z" style="fill:#c95f50"></path><path d="M387.43,146.3s.06.06.05.1c-.29.86-.48,1.89.22,2.42,0,0,0,.05,0,0C386.76,148.44,387,147.07,387.43,146.3Z" style="fill:#263238"></path><path d="M388.48,145.63c1.43.31.69,3.15-.63,2.85S387.29,145.36,388.48,145.63Z" style="fill:#263238"></path><path d="M382.08,144.78s-.08,0-.09.06c-.2.88-.58,1.86-1.45,1.94,0,0,0,.05,0,.06C381.54,147,382,145.65,382.08,144.78Z" style="fill:#263238"></path><path d="M381.54,143.65c-1.39-.47-2.24,2.33-1,2.77S382.7,144.05,381.54,143.65Z" style="fill:#263238"></path><path d="M389.94,144.62c-.36-.2-.66-.44-1-.67s-.7-.43-.88-.88a.61.61,0,0,1,.28-.7,1.52,1.52,0,0,1,1.54.24,2.24,2.24,0,0,1,1,1.27A.66.66,0,0,1,389.94,144.62Z" style="fill:#263238"></path><path d="M380.81,141.94a9.61,9.61,0,0,0,1.2,0,1.93,1.93,0,0,0,1.23-.23.63.63,0,0,0,.16-.74,1.53,1.53,0,0,0-1.41-.66,2.28,2.28,0,0,0-1.55.48A.66.66,0,0,0,380.81,141.94Z" style="fill:#263238"></path><path d="M386.13,154.35a1.42,1.42,0,0,1-.87.33,2.46,2.46,0,0,1-.89-.47,0,0,0,0,0-.05,0,1.22,1.22,0,0,0,1,.77,1,1,0,0,0,.89-.59S386.17,154.33,386.13,154.35Z" style="fill:#263238"></path><path d="M385.89,151.48a3,3,0,0,1-2.34.81,3.72,3.72,0,0,1-1.09-.23l-.2-.07-.18-.08a.26.26,0,0,1-.13-.25h0a.14.14,0,0,1,0-.09h0l0-.07c.16-.68.49-1.7.49-1.7-.28.06-1.68.3-1.57,0a47,47,0,0,1,3.52-8.74c0-.09.19,0,.15.06-.79,2.81-2.07,5.45-2.91,8.25a5.34,5.34,0,0,1,1.53-.06c.08.05-.68,1.94-.73,2.25v0a4.26,4.26,0,0,0,3.34-.16C385.91,151.35,386,151.43,385.89,151.48Z" style="fill:#263238"></path><path d="M383,151.82a3.65,3.65,0,0,0,1.13,1.47,1.67,1.67,0,0,0,1,.32c.75,0,.93-.64.95-1.23a4,4,0,0,0-.1-.92A4.73,4.73,0,0,1,383,151.82Z" style="fill:#263238"></path><path d="M384.08,153.29a1.67,1.67,0,0,0,1,.32c.75,0,.93-.64.95-1.23A1.71,1.71,0,0,0,384.08,153.29Z" style="fill:#ff99ba"></path><path d="M397.26,149.55c-2.23-.58-.93-6.06-.93-6.06s-3.33-1.3-4.08-6.36c0,0-5,1.92-8.58.51-5.62-2.21-4-9.75-1.49-10.87,3.52-1.58,8.41,2.69,8.41,2.69s8.79-.68,10.17,5.44a4.37,4.37,0,0,1,3.13,5.06C403.34,144.11,398.92,150,397.26,149.55Z" style="fill:#263238"></path><path d="M397,144.3a7.83,7.83,0,0,1-3.89-3.24,5.84,5.84,0,0,1-.32-5.36.08.08,0,0,0-.15-.06,6.75,6.75,0,0,0-.16,5.71,5.48,5.48,0,0,0,4.47,3.12C397.06,144.47,397.11,144.34,397,144.3Z" style="fill:#263238"></path><path d="M404.66,137.61c-.86-1.68-2.57-2.26-4.31-2.54-.1,0-.12.15,0,.16a4.93,4.93,0,0,1,3.85,3.19,6.1,6.1,0,0,1-.58,4.66,12.39,12.39,0,0,1-6.26,6.27s0,.09,0,.07a12.33,12.33,0,0,0,7-6.83C405,141.06,405.46,139.16,404.66,137.61Z" style="fill:#263238"></path><path d="M390.76,129.78A5.75,5.75,0,0,0,388,126.7a6.9,6.9,0,0,0-4.93-.46,3.94,3.94,0,0,0-2.67,2.88,6.94,6.94,0,0,0,.69,4.6s.07,0,.06,0a6.84,6.84,0,0,1-.42-4.14,3.6,3.6,0,0,1,2.7-2.72c2.6-.6,6.06.27,7.15,3A.08.08,0,0,0,390.76,129.78Z" style="fill:#263238"></path><path d="M396.9,149.63s3.56-3.83,5.34-2.51-1.31,7.17-3.69,7.7a2.33,2.33,0,0,1-2.91-1.67Z" style="fill:#c95f50"></path><path d="M401.31,148.77a0,0,0,0,1,0,.07,5.83,5.83,0,0,0-3.51,3.21,1.27,1.27,0,0,1,1.94-.08,0,0,0,0,1-.05.08,1.43,1.43,0,0,0-1.63.28,6.83,6.83,0,0,0-.92,1.15c-.09.13-.34,0-.26-.13l0,0C397.15,151.29,399.11,148.68,401.31,148.77Z" style="fill:#263238"></path><rect x="357.74" y="170.35" width="48.2" height="93.85" transform="translate(820.87 201.13) rotate(148.25)" style="fill:#fff"></rect><path d="M386,270.2l-.13-.21-49.51-80,.22-.14,41.2-25.49.13.21,49.51,80-.21.13ZM337,190.13l49.12,79.38,40.56-25.1L377.57,165Z" style="fill:#dbdbdb"></path><rect x="350.8" y="181.12" width="39.42" height="35.67" transform="translate(396.26 618.71) rotate(-121.75)" style="fill:#ebebeb"></rect><path d="M371.35,181.24a4.23,4.23,0,1,0,4.56,1.08A4.23,4.23,0,0,0,371.35,181.24Z" style="fill:#dbdbdb"></path><polygon points="357.35 196.97 372.25 221.06 381.12 198.91 357.35 196.97" style="fill:#c7c7c7"></polygon><polygon points="351.5 187.54 363.8 207.43 368.28 190.91 351.5 187.54" style="fill:#dbdbdb"></polygon><rect x="338.9" y="202.47" width="39.42" height="7.68" transform="matrix(0.53, 0.85, -0.85, 0.53, 345.38, -207.2)" style="fill:#dbdbdb"></rect><rect x="390.53" y="225.65" width="33.58" height="2.44" transform="matrix(0.53, 0.85, -0.85, 0.53, 385.94, -238.88)" style="fill:#ebebeb"></rect><rect x="386.23" y="228.31" width="33.58" height="2.44" transform="translate(386.16 -233.96) rotate(58.25)" style="fill:#ebebeb"></rect><rect x="381.92" y="230.97" width="33.58" height="2.44" transform="translate(386.39 -229.04) rotate(58.25)" style="fill:#ebebeb"></rect><rect x="377.62" y="233.63" width="33.58" height="2.44" transform="matrix(0.53, 0.85, -0.85, 0.53, 386.61, -224.12)" style="fill:#ebebeb"></rect><rect x="373.32" y="236.29" width="33.58" height="2.44" transform="translate(386.84 -219.2) rotate(58.25)" style="fill:#ebebeb"></rect><rect x="348.42" y="188.23" width="71.18" height="47.13" transform="translate(464.37 -219.33) rotate(71.68)" style="fill:#a6a6a6"></rect><path d="M350.3,185.34l.12,0,44.85-14.85,0,.11,22.41,67.69-45,14.89,0-.11Zm44.82-14.59-44.51,14.74,22.29,67.35,44.52-14.74Z" style="fill:#dbdbdb"></path><path d="M386.55,219.47a8.08,8.08,0,1,1,5.14-10.22A8.09,8.09,0,0,1,386.55,219.47Z" style="fill:#ebebeb"></path><polygon points="379.7 209.63 386.19 207.49 385.63 216.67 379.7 209.63" style="fill:#a6a6a6"></polygon><rect x="327.8" y="216.78" width="71.18" height="3.68" transform="translate(456.71 -195.07) rotate(71.68)" style="fill:#ebebeb"></rect><rect x="333.02" y="216.82" width="59.91" height="1.09" transform="translate(455.23 -195.53) rotate(71.68)" style="fill:#c7c7c7"></rect><rect x="351.61" y="185.39" width="2.33" height="2.33" transform="translate(418.97 -206.98) rotate(71.68)" style="fill:#c7c7c7"></rect><rect x="352.43" y="185.43" width="0.44" height="1.5" transform="translate(418.44 -207.13) rotate(71.67)" style="fill:#a6a6a6"></rect><rect x="352.68" y="186.18" width="0.44" height="1.5" transform="matrix(0.31, 0.95, -0.95, 0.31, 419.44, -206.83)" style="fill:#a6a6a6"></rect><rect x="371.89" y="246.65" width="2.33" height="2.33" transform="translate(491.05 -184.23) rotate(71.68)" style="fill:#c7c7c7"></rect><rect x="372.64" y="246.97" width="0.45" height="0.56" transform="matrix(0.31, 0.95, -0.95, 0.31, 490.4, -184.43)" style="fill:#a6a6a6"></rect><polygon points="372.49 248.16 372.62 247.39 373.15 247.22 373.71 247.76 372.49 248.16" style="fill:#a6a6a6"></polygon><g id="freepik--u5zjqx--inject-37"><path d="M373.62,248.14l.13.07a.8.8,0,0,1-.34.34.77.77,0,0,1-.68,0l.07-.13a.62.62,0,0,0,.82-.28Z" style="fill:#a6a6a6"></path><path d="M372.87,248.28l.06-.13a.33.33,0,0,0,.24,0,.31.31,0,0,0,.18-.16l.13.07A.45.45,0,0,1,372.87,248.28Z" style="fill:#a6a6a6"></path></g><rect x="372.76" y="249.29" width="2.33" height="2.33" transform="translate(494.16 -183.25) rotate(71.68)" style="fill:#c7c7c7"></rect><rect x="373.64" y="249.58" width="0.96" height="0.96" transform="translate(493.9 -183.71) rotate(71.68)" style="fill:#a6a6a6"></rect><rect x="373.21" y="250.39" width="0.96" height="0.96" transform="translate(494.43 -182.73) rotate(71.69)" style="fill:#fff"></rect><path d="M357.08,199.59a1.13,1.13,0,0,0-.47.29L353,189.1l1-.34,3.57,10.78A1.25,1.25,0,0,0,357.08,199.59Z" style="fill:#a6a6a6"></path><path d="M357.87,202a1.21,1.21,0,0,1-.56.06,1.24,1.24,0,0,1-1-.85,1.21,1.21,0,0,1,.31-1.28,1.13,1.13,0,0,1,.47-.29,1.25,1.25,0,0,1,.57-.05,1.22,1.22,0,0,1,1,.84,1.24,1.24,0,0,1-.79,1.57Z" style="fill:#a6a6a6"></path><path d="M408.18,171.44c10.31,13.39,28.67,48.25,22.41,55.5-10.29,11.91-32.39,19.23-40.26,21.59-3.4,1-6.49-24.37-3.28-26.4,3.84-2.44,21.26-8.71,21.13-11-.08-1.31-5.6-19-8.29-33.12C396.77,161.63,404.64,166.85,408.18,171.44Z" style="fill:#c95f50"></path><path d="M353.69,227.7a4.14,4.14,0,0,0,1.92,4.3,6.11,6.11,0,0,0-1.75,3.77c-.1,2.52,3.8,3.78,3.8,3.78a7.6,7.6,0,0,0-1.22,4.28c.15,2.42,3.9,4.25,3.9,4.25a6.64,6.64,0,0,0,1.3,4.43c2.68,3.3,9.12,2.51,13.21,2s15.29-5.62,17.52-6.38l-2.75-26.33s-19-3.15-23.71-1.91C361.92,221,354.41,224.56,353.69,227.7Z" style="fill:#c95f50"></path><path d="M355.75,231.55c4-2.12,8.37-2.94,12.71-4,.1,0,.13.13,0,.15-4.33,1-8.4,2.89-12.67,4.07A.11.11,0,0,1,355.75,231.55Z" style="fill:#263238"></path><path d="M357.71,239.2a12,12,0,0,1,3-.8c1.07-.21,2.14-.4,3.22-.57,2.15-.35,4.31-.65,6.48-.88.1,0,.14.13,0,.15-2.15.35-4.29.73-6.42,1.17-1.06.22-2.13.45-3.19.69a14.26,14.26,0,0,1-3,.53A.16.16,0,0,1,357.71,239.2Z" style="fill:#263238"></path><path d="M360.43,248.07a8.07,8.07,0,0,1,2.72-.58l3-.43c2-.3,3.93-.6,5.88-1,.1,0,.14.13,0,.15-2,.38-4,.79-5.95,1.16l-2.93.52a7.94,7.94,0,0,1-2.7.24A.06.06,0,0,1,360.43,248.07Z" style="fill:#263238"></path><path d="M403.8,197l18.29-5.9s-8.94-15.19-15.09-21.62-8.94-3.87-7.89,6.32A117.41,117.41,0,0,0,403.8,197Z" style="fill:#FF9130"></path><path d="M419.86,188.37c-2.73.62-13.35,4.24-16,5.29a.08.08,0,0,0,.05.15c2.71-.71,13.39-4.18,15.95-5.32A.06.06,0,0,0,419.86,188.37Z" style="fill:#263238"></path><path d="M404.31,196.78a2.34,2.34,0,0,1-.42,0c-.05,0-.5-1.86-.6-2.3-.2-.83-.41-1.66-.61-2.49-.43-1.69-.84-3.4-1.23-5.1-.77-3.4-1.52-6.81-2.16-10.24,0-.06-.11,0-.1,0,.13,1.59.33,3.17.59,4.74-.25-.69-.49-1.38-.75-2.06,0,0-.07,0-.06,0,.3.91.61,1.82.92,2.73.27,1.58.59,3.16,1,4.72s.81,3.31,1.25,5,1.5,5.27,1.57,5.25c.25-.06.4-.15.65-.21S404.41,196.76,404.31,196.78Z" style="fill:#263238"></path></g></svg>