<?xml version="1.0" encoding="UTF-8"?>
<!DOCTYPE svg PUBLIC "-//W3C//DTD SVG 1.1//EN" "http://www.w3.org/Graphics/SVG/1.1/DTD/svg11.dtd">
<svg xmlns="http://www.w3.org/2000/svg" version="1.1" width="28px" height="27px" style="shape-rendering:geometricPrecision; text-rendering:geometricPrecision; image-rendering:optimizeQuality; fill-rule:evenodd; clip-rule:evenodd" xmlns:xlink="http://www.w3.org/1999/xlink">
<g><path style="opacity:0.9" fill="#fefffe" d="M 0.5,-0.5 C 1.83333,-0.5 3.16667,-0.5 4.5,-0.5C 5.36061,1.38628 6.36061,3.21961 7.5,5C 14.1583,5.49958 20.825,5.66625 27.5,5.5C 27.5,7.5 27.5,9.5 27.5,11.5C 26.282,13.8281 25.282,16.3281 24.5,19C 18.8041,19.8299 13.1375,19.6632 7.5,18.5C 5.90083,13.5353 4.40083,8.53533 3,3.5C 1.88732,2.69499 0.72065,2.02832 -0.5,1.5C -0.5,1.16667 -0.5,0.833333 -0.5,0.5C 0.166667,0.5 0.5,0.166667 0.5,-0.5 Z"/></g>
<g><path style="opacity:0.716" fill="#fefffe" d="M 11.5,26.5 C 11.1667,26.5 10.8333,26.5 10.5,26.5C 9.03201,25.2209 8.36534,23.5542 8.5,21.5C 10.1667,21.5 11.8333,21.5 13.5,21.5C 13.6347,23.5542 12.968,25.2209 11.5,26.5 Z"/></g>
<g><path style="opacity:0.754" fill="#fefffe" d="M 22.5,26.5 C 21.8333,26.5 21.1667,26.5 20.5,26.5C 17.5162,22.8109 18.5162,21.1442 23.5,21.5C 23.634,23.2915 23.3007,24.9582 22.5,26.5 Z"/></g>
</svg>
