<?xml version="1.0" encoding="UTF-8"?>
<!DOCTYPE svg PUBLIC "-//W3C//DTD SVG 1.1//EN" "http://www.w3.org/Graphics/SVG/1.1/DTD/svg11.dtd">
<svg xmlns="http://www.w3.org/2000/svg" version="1.1" width="30px" height="22px" style="shape-rendering:geometricPrecision; text-rendering:geometricPrecision; image-rendering:optimizeQuality; fill-rule:evenodd; clip-rule:evenodd" xmlns:xlink="http://www.w3.org/1999/xlink">
<g><path style="opacity:0.89" fill="#fefffe" d="M -0.5,-0.5 C 5.5,-0.5 11.5,-0.5 17.5,-0.5C 17.5394,0.583168 17.8728,1.58317 18.5,2.5C 23.8842,2.89376 27.5509,5.56043 29.5,10.5C 29.5,12.8333 29.5,15.1667 29.5,17.5C 27.6115,18.604 25.9448,19.9373 24.5,21.5C 22.8333,21.5 21.1667,21.5 19.5,21.5C 18.8519,19.9142 18.3519,18.2475 18,16.5C 14.9639,17.8664 12.1306,19.5331 9.5,21.5C 7.83333,21.5 6.16667,21.5 4.5,21.5C 3.23185,19.953 1.56518,18.953 -0.5,18.5C -0.5,12.1667 -0.5,5.83333 -0.5,-0.5 Z M 21.5,7.5 C 23.6449,7.7377 25.3115,8.7377 26.5,10.5C 24.081,11.8954 22.081,11.3954 20.5,9C 21.056,8.61742 21.3893,8.11742 21.5,7.5 Z M 5.5,16.5 C 6.5,16.5 7.5,16.5 8.5,16.5C 8.5,17.5 8.5,18.5 8.5,19.5C 7.5,19.5 6.5,19.5 5.5,19.5C 5.5,18.5 5.5,17.5 5.5,16.5 Z M 20.5,16.5 C 21.5,16.5 22.5,16.5 23.5,16.5C 23.5,17.5 23.5,18.5 23.5,19.5C 22.5,19.5 21.5,19.5 20.5,19.5C 20.5,18.5 20.5,17.5 20.5,16.5 Z"/></g>
</svg>
