<?xml version="1.0" encoding="UTF-8"?>
<!DOCTYPE svg PUBLIC "-//W3C//DTD SVG 1.1//EN" "http://www.w3.org/Graphics/SVG/1.1/DTD/svg11.dtd">
<svg xmlns="http://www.w3.org/2000/svg" version="1.1" width="91px" height="86px" style="shape-rendering:geometricPrecision; text-rendering:geometricPrecision; image-rendering:optimizeQuality; fill-rule:evenodd; clip-rule:evenodd" xmlns:xlink="http://www.w3.org/1999/xlink">
<g><path style="opacity:0.918" fill="#fefdfd" d="M 90.5,35.5 C 90.5,41.1667 90.5,46.8333 90.5,52.5C 88.9923,57.8506 86.659,62.8506 83.5,67.5C 80.4604,66.3197 77.7937,64.653 75.5,62.5C 77.4734,61.5133 79.4734,60.5133 81.5,59.5C 82.4988,48.1862 82.8322,36.8529 82.5,25.5C 82.67,24.1779 82.3366,23.0113 81.5,22C 78.4734,20.4867 75.4734,18.9867 72.5,17.5C 70.0465,15.9402 67.3798,14.9402 64.5,14.5C 61.0984,11.4658 57.0984,9.4658 52.5,8.5C 45.3831,11.2251 38.3831,14.2251 31.5,17.5C 30.9622,14.0955 29.6288,11.0955 27.5,8.5C 47.2229,-1.24018 65.0562,1.42649 81,16.5C 85.2726,22.3784 88.4393,28.7117 90.5,35.5 Z"/></g>
<g><path style="opacity:1" fill="#3f88f0" d="M 27.5,8.5 C 29.6288,11.0955 30.9622,14.0955 31.5,17.5C 31.8771,21.6073 30.8771,25.274 28.5,28.5C 26.7278,30.2896 24.7278,31.6229 22.5,32.5C 18.2576,32.9208 14.2576,32.2541 10.5,30.5C 2.52249,23.1203 2.52249,15.6203 10.5,8C 16.2832,4.63198 21.9499,4.79865 27.5,8.5 Z"/></g>
<g><path style="opacity:1" fill="#f3cd94" d="M 64.5,14.5 C 53.9754,19.5948 43.6421,24.9281 33.5,30.5C 33.1667,30.5 32.8333,30.5 32.5,30.5C 31.1667,29.8333 29.8333,29.1667 28.5,28.5C 30.8771,25.274 31.8771,21.6073 31.5,17.5C 38.3831,14.2251 45.3831,11.2251 52.5,8.5C 57.0984,9.4658 61.0984,11.4658 64.5,14.5 Z"/></g>
<g><path style="opacity:1" fill="#613d35" d="M 64.5,14.5 C 67.3798,14.9402 70.0465,15.9402 72.5,17.5C 62.327,23.4206 51.9937,29.0873 41.5,34.5C 41.1667,34.5 40.8333,34.5 40.5,34.5C 38.3649,32.9291 36.0316,31.5957 33.5,30.5C 43.6421,24.9281 53.9754,19.5948 64.5,14.5 Z"/></g>
<g><path style="opacity:1" fill="#e6ede9" d="M 22.5,14.5 C 24.6859,14.5106 25.5192,15.5106 25,17.5C 22.6178,20.2193 19.9512,22.5526 17,24.5C 13.8198,23.1606 11.9865,20.8273 11.5,17.5C 13.9032,17.393 15.7365,18.393 17,20.5C 19.0396,18.6298 20.8729,16.6298 22.5,14.5 Z"/></g>
<g><path style="opacity:1" fill="#f4cd93" d="M 72.5,17.5 C 75.4734,18.9867 78.4734,20.4867 81.5,22C 82.3366,23.0113 82.67,24.1779 82.5,25.5C 72.9599,30.4368 63.2932,35.1034 53.5,39.5C 48.9991,38.9127 44.9991,37.2461 41.5,34.5C 51.9937,29.0873 62.327,23.4206 72.5,17.5 Z"/></g>
<g><path style="opacity:1" fill="#dd9661" d="M 82.5,25.5 C 82.8322,36.8529 82.4988,48.1862 81.5,59.5C 79.4734,60.5133 77.4734,61.5133 75.5,62.5C 67.9594,66.437 60.2928,70.1037 52.5,73.5C 52.1894,62.0857 52.5227,50.7524 53.5,39.5C 63.2932,35.1034 72.9599,30.4368 82.5,25.5 Z"/></g>
<g><path style="opacity:1" fill="#f3b877" d="M 28.5,28.5 C 29.8333,29.1667 31.1667,29.8333 32.5,30.5C 32.334,35.8437 32.5006,41.1771 33,46.5C 35.3333,47.8333 37.6667,49.1667 40,50.5C 40.4994,45.1771 40.666,39.8437 40.5,34.5C 40.8333,34.5 41.1667,34.5 41.5,34.5C 44.9991,37.2461 48.9991,38.9127 53.5,39.5C 52.5227,50.7524 52.1894,62.0857 52.5,73.5C 44.749,70.1255 37.0823,66.4588 29.5,62.5C 27.5266,61.5133 25.5266,60.5133 23.5,59.5C 22.5018,50.5246 22.1685,41.5246 22.5,32.5C 24.7278,31.6229 26.7278,30.2896 28.5,28.5 Z"/></g>
<g><path style="opacity:0.932" fill="#fefefe" d="M 10.5,30.5 C 14.2576,32.2541 18.2576,32.9208 22.5,32.5C 22.1685,41.5246 22.5018,50.5246 23.5,59.5C 25.5266,60.5133 27.5266,61.5133 29.5,62.5C 27.3239,64.5152 24.8239,66.1819 22,67.5C 21.2506,68.635 21.4173,69.635 22.5,70.5C 32.2131,75.0198 41.5464,80.0198 50.5,85.5C 48.1667,85.5 45.8333,85.5 43.5,85.5C 15.398,77.6528 4.39801,59.3194 10.5,30.5 Z"/></g>
<g><path style="opacity:1" fill="#4a2c26" d="M 32.5,30.5 C 32.8333,30.5 33.1667,30.5 33.5,30.5C 36.0316,31.5957 38.3649,32.9291 40.5,34.5C 40.666,39.8437 40.4994,45.1771 40,50.5C 37.6667,49.1667 35.3333,47.8333 33,46.5C 32.5006,41.1771 32.334,35.8437 32.5,30.5 Z"/></g>
<g><path style="opacity:1" fill="#614531" d="M 76.5,49.5 C 79.2474,50.9728 80.0807,53.3061 79,56.5C 75.6503,60.6912 73.4836,60.3578 72.5,55.5C 73.8221,55.33 74.9887,55.6634 76,56.5C 76.5,55.5 77,54.5 77.5,53.5C 76.3966,53.0024 75.3966,52.6691 74.5,52.5C 75.1925,51.4822 75.8592,50.4822 76.5,49.5 Z"/></g>
<g><path style="opacity:1" fill="#c9c4c0" d="M 24.5,52.5 C 27.3425,53.1723 29.8425,54.5056 32,56.5C 32.6667,58.1667 32.6667,59.8333 32,61.5C 29.9656,59.9684 27.7989,58.6351 25.5,57.5C 24.5481,55.9547 24.2148,54.288 24.5,52.5 Z"/></g>
<g><path style="opacity:0.999" fill="#e8ecee" d="M 29.5,62.5 C 37.0823,66.4588 44.749,70.1255 52.5,73.5C 60.2928,70.1037 67.9594,66.437 75.5,62.5C 77.7937,64.653 80.4604,66.3197 83.5,67.5C 76.5091,77.16 67.1758,83.16 55.5,85.5C 53.8333,85.5 52.1667,85.5 50.5,85.5C 41.5464,80.0198 32.2131,75.0198 22.5,70.5C 21.4173,69.635 21.2506,68.635 22,67.5C 24.8239,66.1819 27.3239,64.5152 29.5,62.5 Z"/></g>
<g><path style="opacity:1" fill="#72583d" d="M 39.5,59.5 C 40.3019,60.9516 40.8019,62.6183 41,64.5C 41.2189,63.062 41.7189,61.7287 42.5,60.5C 43.1575,62.437 43.4908,64.2703 43.5,66C 38.7681,66.0459 37.4348,63.8792 39.5,59.5 Z"/></g>
<g><path style="opacity:1" fill="#3e3126" d="M 45.5,61.5 C 48.6238,63.2696 49.1238,65.6029 47,68.5C 46.023,66.26 45.523,63.9267 45.5,61.5 Z"/></g>
</svg>
