<?xml version="1.0" encoding="UTF-8"?>
<!DOCTYPE svg PUBLIC "-//W3C//DTD SVG 1.1//EN" "http://www.w3.org/Graphics/SVG/1.1/DTD/svg11.dtd">
<svg xmlns="http://www.w3.org/2000/svg" version="1.1" width="184px" height="131px" style="shape-rendering:geometricPrecision; text-rendering:geometricPrecision; image-rendering:optimizeQuality; fill-rule:evenodd; clip-rule:evenodd" xmlns:xlink="http://www.w3.org/1999/xlink">
<g><path style="opacity:0.939" fill="#43535e" d="M 158.5,-0.5 C 159.5,-0.5 160.5,-0.5 161.5,-0.5C 168.387,28.0533 175.721,56.3866 183.5,84.5C 183.5,85.8333 183.5,87.1667 183.5,88.5C 178.188,89.3952 172.855,90.2286 167.5,91C 131.688,88.9469 97.3549,94.9469 64.5,109C 50.1723,115.161 36.5056,122.328 23.5,130.5C 23.1667,130.5 22.8333,130.5 22.5,130.5C 14.8142,101.751 7.14749,73.0843 -0.5,44.5C -0.5,43.5 -0.5,42.5 -0.5,41.5C 21.7103,28.5626 45.0436,18.0626 69.5,10C 78.001,7.47205 86.6677,5.80538 95.5,5C 109.487,4.0774 123.487,3.41074 137.5,3C 144.776,2.67633 151.776,1.50966 158.5,-0.5 Z"/></g>
<g><path style="opacity:1" fill="#596d7e" d="M 115.5,10.5 C 125.172,10.3335 134.839,10.5002 144.5,11C 147.995,15.9126 152.661,19.0792 158.5,20.5C 162.989,36.7893 167.322,53.1226 171.5,69.5C 167.551,73.8949 164.217,78.7282 161.5,84C 128.584,82.2836 96.917,87.6169 66.5,100C 57.0447,104.228 47.7113,108.728 38.5,113.5C 34.2839,109.559 29.2839,107.559 23.5,107.5C 19.8964,90.9187 15.8964,74.4187 11.5,58C 15.0968,52.2993 17.7635,46.1326 19.5,39.5C 41.514,27.217 64.8473,18.3837 89.5,13C 98.3213,12.1828 106.988,11.3495 115.5,10.5 Z"/></g>
<g><path style="opacity:1" fill="#738da0" d="M 80.5,21.5 C 93.3374,21.4921 102.837,27.1587 109,38.5C 117.213,52.5733 116.046,65.7399 105.5,78C 85.6324,87.1534 72.1324,81.3201 65,60.5C 62.0883,49.9207 63.4216,39.9207 69,30.5C 72.1607,26.4905 75.994,23.4905 80.5,21.5 Z"/></g>
<g><path style="opacity:1" fill="#a1c7da" d="M 84.5,31.5 C 86.256,32.5521 86.9227,34.2188 86.5,36.5C 89.8806,36.4595 93.2139,36.7929 96.5,37.5C 96.6168,39.4835 95.9501,41.1502 94.5,42.5C 92.5914,41.6518 90.5914,41.3184 88.5,41.5C 87.8124,47.671 90.479,50.8376 96.5,51C 101.224,53.4353 102.724,57.2686 101,62.5C 99.5084,64.665 97.675,66.4983 95.5,68C 96.1476,69.4397 96.4809,70.9397 96.5,72.5C 95.0695,72.4208 93.7362,72.7542 92.5,73.5C 91.6433,72.2643 90.9766,70.931 90.5,69.5C 87.2317,68.513 83.8984,68.1796 80.5,68.5C 80.5,66.8333 80.5,65.1667 80.5,63.5C 83.5274,64.5089 86.5274,64.5089 89.5,63.5C 88.8333,61.1667 88.1667,58.8333 87.5,56.5C 78.4359,56.61 74.6026,52.2767 76,43.5C 77.6721,40.6629 79.8387,38.3296 82.5,36.5C 81.7542,35.2638 81.4208,33.9305 81.5,32.5C 82.791,32.7373 83.791,32.404 84.5,31.5 Z"/></g>
<g><path style="opacity:1" fill="#7792a5" d="M 82.5,42.5 C 84.821,44.0897 85.821,46.4231 85.5,49.5C 81.6588,48.5158 80.6588,46.1825 82.5,42.5 Z"/></g>
<g><path style="opacity:1" fill="#7691a4" d="M 91.5,56.5 C 92.5417,55.2089 93.7083,55.2089 95,56.5C 95.8201,58.728 95.4868,60.728 94,62.5C 93.4338,60.2774 92.6005,58.2774 91.5,56.5 Z"/></g>
</svg>
