<?xml version="1.0" encoding="UTF-8"?>
<!DOCTYPE svg PUBLIC "-//W3C//DTD SVG 1.1//EN" "http://www.w3.org/Graphics/SVG/1.1/DTD/svg11.dtd">
<svg xmlns="http://www.w3.org/2000/svg" version="1.1" width="83px" height="82px" style="shape-rendering:geometricPrecision; text-rendering:geometricPrecision; image-rendering:optimizeQuality; fill-rule:evenodd; clip-rule:evenodd" xmlns:xlink="http://www.w3.org/1999/xlink">
<g><path style="opacity:0.959" fill="#c44c45" d="M 10.5,-0.5 C 13.1667,-0.5 15.8333,-0.5 18.5,-0.5C 19.9649,0.736849 21.6316,1.73685 23.5,2.5C 24.412,4.5952 25.5787,6.5952 27,8.5C 27.49,9.79323 27.6567,11.1266 27.5,12.5C 27.2205,17.729 24.8872,21.729 20.5,24.5C 17.6085,25.4025 14.6085,25.7359 11.5,25.5C 8.28143,25.2241 5.61476,23.8907 3.5,21.5C -1.37423,11.7914 0.959102,4.45803 10.5,-0.5 Z"/></g>
<g><path style="opacity:0.926" fill="#fefdfd" d="M 32.5,-0.5 C 38.1667,-0.5 43.8333,-0.5 49.5,-0.5C 67.7193,4.38534 78.7193,16.052 82.5,34.5C 82.5,38.5 82.5,42.5 82.5,46.5C 81.191,53.0899 78.5244,59.0899 74.5,64.5C 72.3428,62.5879 70.0094,60.9213 67.5,59.5C 69.5,58.1667 71.5,56.8333 73.5,55.5C 74.8245,43.6602 74.8245,31.6602 73.5,19.5C 70.5963,17.88 67.5963,16.5467 64.5,15.5C 62.1515,13.659 59.4848,12.3257 56.5,11.5C 53.0984,8.4658 49.0984,6.4658 44.5,5.5C 38.7184,7.55756 33.0517,9.8909 27.5,12.5C 27.6567,11.1266 27.49,9.79323 27,8.5C 25.5787,6.5952 24.412,4.5952 23.5,2.5C 26.659,1.66929 29.659,0.669289 32.5,-0.5 Z"/></g>
<g><path style="opacity:1" fill="#f3cc92" d="M 56.5,11.5 C 45.8599,16.8201 35.1932,22.1534 24.5,27.5C 22.7697,26.9744 21.4363,25.9744 20.5,24.5C 24.8872,21.729 27.2205,17.729 27.5,12.5C 33.0517,9.8909 38.7184,7.55756 44.5,5.5C 49.0984,6.4658 53.0984,8.4658 56.5,11.5 Z"/></g>
<g><path style="opacity:1" fill="#fcf7f7" d="M 12.5,6.5 C 13.5,6.5 14.5,6.5 15.5,6.5C 15.5,9.5 15.5,12.5 15.5,15.5C 14.5,15.5 13.5,15.5 12.5,15.5C 12.5,12.5 12.5,9.5 12.5,6.5 Z"/></g>
<g><path style="opacity:1" fill="#58362f" d="M 56.5,11.5 C 59.4848,12.3257 62.1515,13.659 64.5,15.5C 53.5157,20.3255 42.849,25.6588 32.5,31.5C 32.5,36.5 32.5,41.5 32.5,46.5C 29.9954,46.0198 27.6621,45.0198 25.5,43.5C 24.5052,38.2079 24.1718,32.8746 24.5,27.5C 35.1932,22.1534 45.8599,16.8201 56.5,11.5 Z"/></g>
<g><path style="opacity:1" fill="#f3cb93" d="M 64.5,15.5 C 67.5963,16.5467 70.5963,17.88 73.5,19.5C 74.8245,31.6602 74.8245,43.6602 73.5,55.5C 73.6665,44.495 73.4998,33.495 73,22.5C 63.678,27.5778 54.178,32.2445 44.5,36.5C 40.2769,35.3891 36.2769,33.7224 32.5,31.5C 42.849,25.6588 53.5157,20.3255 64.5,15.5 Z"/></g>
<g><path style="opacity:1" fill="#fcf8f7" d="M 12.5,17.5 C 13.5,17.5 14.5,17.5 15.5,17.5C 14.7542,21.31 13.7542,21.31 12.5,17.5 Z"/></g>
<g><path style="opacity:0.948" fill="#fefefe" d="M 3.5,21.5 C 5.61476,23.8907 8.28143,25.2241 11.5,25.5C 12.209,26.404 13.209,26.7373 14.5,26.5C 14.3335,36.1724 14.5002,45.8391 15,55.5C 17.3143,56.7332 19.4809,58.0666 21.5,59.5C 19.3924,61.0591 17.0591,62.3924 14.5,63.5C 13.4173,64.365 13.2506,65.365 14,66.5C 23.1486,71.6553 32.3152,76.6553 41.5,81.5C 38.5,81.5 35.5,81.5 32.5,81.5C 3.66457,71.1567 -6.0021,51.1567 3.5,21.5 Z"/></g>
<g><path style="opacity:1" fill="#dd9761" d="M 73.5,55.5 C 71.5,56.8333 69.5,58.1667 67.5,59.5C 60.3741,62.5629 53.3741,65.8962 46.5,69.5C 44.523,58.8842 43.8564,47.8842 44.5,36.5C 54.178,32.2445 63.678,27.5778 73,22.5C 73.4998,33.495 73.6665,44.495 73.5,55.5 Z"/></g>
<g><path style="opacity:1" fill="#f3b877" d="M 20.5,24.5 C 21.4363,25.9744 22.7697,26.9744 24.5,27.5C 24.1718,32.8746 24.5052,38.2079 25.5,43.5C 27.6621,45.0198 29.9954,46.0198 32.5,46.5C 32.5,41.5 32.5,36.5 32.5,31.5C 36.2769,33.7224 40.2769,35.3891 44.5,36.5C 43.8564,47.8842 44.523,58.8842 46.5,69.5C 45.3991,70.5983 44.0657,70.765 42.5,70C 35.4469,66.4734 28.4469,62.9734 21.5,59.5C 19.4809,58.0666 17.3143,56.7332 15,55.5C 14.5002,45.8391 14.3335,36.1724 14.5,26.5C 13.209,26.7373 12.209,26.404 11.5,25.5C 14.6085,25.7359 17.6085,25.4025 20.5,24.5 Z"/></g>
<g><path style="opacity:1" fill="#4e382a" d="M 67.5,46.5 C 72.0918,48.2168 72.5918,50.8835 69,54.5C 68.8047,52.7928 68.8047,51.1261 69,49.5C 67.9305,49.6399 66.7639,49.6399 65.5,49.5C 66.1925,48.4822 66.8592,47.4822 67.5,46.5 Z"/></g>
<g><path style="opacity:1" fill="#c7c1bc" d="M 16.5,48.5 C 18.7199,50.7184 21.3866,52.0517 24.5,52.5C 24.7852,54.288 24.4519,55.9547 23.5,57.5C 18.4647,56.4774 16.1313,53.4774 16.5,48.5 Z"/></g>
<g><path style="opacity:1" fill="#503a2b" d="M 64.5,51.5 C 66.1207,51.7869 67.1207,52.7869 67.5,54.5C 66.675,55.3857 65.675,55.719 64.5,55.5C 64.5,54.1667 64.5,52.8333 64.5,51.5 Z"/></g>
<g><path style="opacity:0.996" fill="#e8edef" d="M 21.5,59.5 C 28.4469,62.9734 35.4469,66.4734 42.5,70C 44.0657,70.765 45.3991,70.5983 46.5,69.5C 53.3741,65.8962 60.3741,62.5629 67.5,59.5C 70.0094,60.9213 72.3428,62.5879 74.5,64.5C 68.3804,73.3952 60.0471,79.0619 49.5,81.5C 46.8333,81.5 44.1667,81.5 41.5,81.5C 32.3152,76.6553 23.1486,71.6553 14,66.5C 13.2506,65.365 13.4173,64.365 14.5,63.5C 17.0591,62.3924 19.3924,61.0591 21.5,59.5 Z"/></g>
<g><path style="opacity:1" fill="#866646" d="M 30.5,55.5 C 32.7099,56.4551 33.0432,57.9551 31.5,60C 31.8333,60.1667 32.1667,60.3333 32.5,60.5C 33.2508,59.624 33.7508,58.624 34,57.5C 35.4868,59.272 35.8201,61.272 35,63.5C 31.3625,62.122 29.8625,59.4554 30.5,55.5 Z"/></g>
<g><path style="opacity:1" fill="#48382a" d="M 37.5,58.5 C 38.2216,58.9175 38.7216,59.5842 39,60.5C 40.0177,59.2941 40.5177,59.6274 40.5,61.5C 40.2811,62.938 39.7811,64.2713 39,65.5C 38.023,63.26 37.523,60.9267 37.5,58.5 Z"/></g>
</svg>
