<?xml version="1.0" encoding="UTF-8"?>
<!DOCTYPE svg PUBLIC "-//W3C//DTD SVG 1.1//EN" "http://www.w3.org/Graphics/SVG/1.1/DTD/svg11.dtd">
<svg xmlns="http://www.w3.org/2000/svg" version="1.1" width="25px" height="29px" style="shape-rendering:geometricPrecision; text-rendering:geometricPrecision; image-rendering:optimizeQuality; fill-rule:evenodd; clip-rule:evenodd" xmlns:xlink="http://www.w3.org/1999/xlink">
<g><path style="opacity:0.926" fill="#c34a43" d="M 8.5,-0.5 C 10.8333,-0.5 13.1667,-0.5 15.5,-0.5C 19.7425,0.741084 22.7425,3.40775 24.5,7.5C 24.5,10.8333 24.5,14.1667 24.5,17.5C 18.9801,25.0014 11.9801,26.5014 3.5,22C 1.7518,19.9871 0.418466,17.8205 -0.5,15.5C -0.5,13.1667 -0.5,10.8333 -0.5,8.5C 1.5,4.5 4.5,1.5 8.5,-0.5 Z"/></g>
<g><path style="opacity:1" fill="#fbf4f4" d="M 10.5,5.5 C 11.5,5.5 12.5,5.5 13.5,5.5C 13.5,8.16667 13.5,10.8333 13.5,13.5C 12.5,13.5 11.5,13.5 10.5,13.5C 10.5,10.8333 10.5,8.16667 10.5,5.5 Z"/></g>
<g><path style="opacity:1" fill="#faeeed" d="M 10.5,15.5 C 11.5,15.5 12.5,15.5 13.5,15.5C 13.5,16.5 13.5,17.5 13.5,18.5C 12.5,18.5 11.5,18.5 10.5,18.5C 10.5,17.5 10.5,16.5 10.5,15.5 Z"/></g>
</svg>
