<?xml version="1.0" encoding="UTF-8"?>
<!DOCTYPE svg PUBLIC "-//W3C//DTD SVG 1.1//EN" "http://www.w3.org/Graphics/SVG/1.1/DTD/svg11.dtd">
<svg xmlns="http://www.w3.org/2000/svg" version="1.1" width="78px" height="78px" style="shape-rendering:geometricPrecision; text-rendering:geometricPrecision; image-rendering:optimizeQuality; fill-rule:evenodd; clip-rule:evenodd" xmlns:xlink="http://www.w3.org/1999/xlink">
<g><path style="opacity:0.915" fill="#fefefe" d="M 32.5,-0.5 C 36.5,-0.5 40.5,-0.5 44.5,-0.5C 51.9466,1.22331 58.6133,4.55664 64.5,9.5C 61.9556,9.89567 59.7889,9.22901 58,7.5C 57.5,8 57,8.5 56.5,9C 51.1771,9.49935 45.8437,9.66602 40.5,9.5C 40.5,8.5 40.5,7.5 40.5,6.5C 39.5,6.5 38.5,6.5 37.5,6.5C 37.5,7.5 37.5,8.5 37.5,9.5C 34.5,9.5 31.5,9.5 28.5,9.5C 26.2188,9.07729 24.5521,9.74395 23.5,11.5C 13.621,13.7076 7.95431,19.7076 6.5,29.5C 4.5,29.5 2.5,29.5 0.5,29.5C 5.09223,12.9047 15.7589,2.90466 32.5,-0.5 Z"/></g>
<g><path style="opacity:1" fill="#f2cdad" d="M 40.5,9.5 C 39.5489,10.9187 39.2155,12.5853 39.5,14.5C 37.744,13.4479 37.0773,11.7812 37.5,9.5C 37.5,8.5 37.5,7.5 37.5,6.5C 38.5,6.5 39.5,6.5 40.5,6.5C 40.5,7.5 40.5,8.5 40.5,9.5 Z"/></g>
<g><path style="opacity:1" fill="#ec9d4e" d="M 64.5,9.5 C 65.8333,10.1667 66.8333,11.1667 67.5,12.5C 67.2456,15.9987 68.9123,18.6653 72.5,20.5C 73.6737,21.5137 74.3404,22.847 74.5,24.5C 68.8858,20.7284 63.3858,16.7284 58,12.5C 52.3243,16.6832 46.8243,21.0165 41.5,25.5C 40.4246,26.5624 39.4246,26.5624 38.5,25.5C 43.6839,20.4819 49.0172,15.6486 54.5,11C 49.8452,10.5008 45.1785,10.3342 40.5,10.5C 40.7678,12.099 40.4345,13.4324 39.5,14.5C 39.2155,12.5853 39.5489,10.9187 40.5,9.5C 45.8437,9.66602 51.1771,9.49935 56.5,9C 57,8.5 57.5,8 58,7.5C 59.7889,9.22901 61.9556,9.89567 64.5,9.5 Z"/></g>
<g><path style="opacity:1" fill="#eb9d4f" d="M 28.5,9.5 C 30.7059,16.2508 33.2059,22.9175 36,29.5C 37.6995,30.4061 39.5328,30.7394 41.5,30.5C 36.3491,31.3267 31.0158,31.8267 25.5,32C 24.944,32.3826 24.6107,32.8826 24.5,33.5C 17.4163,32.8745 10.7496,33.5411 4.5,35.5C 2.98261,35.5106 1.81595,36.1772 1,37.5C 0.506489,35.8659 0.339822,34.1992 0.5,32.5C 0.5,31.5 0.5,30.5 0.5,29.5C 2.5,29.5 4.5,29.5 6.5,29.5C 12.1667,29.5 17.8333,29.5 23.5,29.5C 23.5,23.5 23.5,17.5 23.5,11.5C 24.5521,9.74395 26.2188,9.07729 28.5,9.5 Z"/></g>
<g><path style="opacity:1" fill="#e6873a" d="M 28.5,9.5 C 31.5,9.5 34.5,9.5 37.5,9.5C 37.0773,11.7812 37.744,13.4479 39.5,14.5C 40.4345,13.4324 40.7678,12.099 40.5,10.5C 45.1785,10.3342 49.8452,10.5008 54.5,11C 49.0172,15.6486 43.6839,20.4819 38.5,25.5C 39.4246,26.5624 40.4246,26.5624 41.5,25.5C 41.5,27.1667 41.5,28.8333 41.5,30.5C 39.5328,30.7394 37.6995,30.4061 36,29.5C 33.2059,22.9175 30.7059,16.2508 28.5,9.5 Z"/></g>
<g><path style="opacity:1" fill="#edf3fe" d="M 23.5,11.5 C 23.5,17.5 23.5,23.5 23.5,29.5C 17.8333,29.5 12.1667,29.5 6.5,29.5C 7.95431,19.7076 13.621,13.7076 23.5,11.5 Z"/></g>
<g><path style="opacity:0.991" fill="#f9dbc2" d="M 74.5,24.5 C 75.7158,27.8661 76.7158,31.1995 77.5,34.5C 77.5,35.5 77.5,36.5 77.5,37.5C 76.5,37.5 75.5,37.5 74.5,37.5C 73.931,41.3293 74.5977,44.6627 76.5,47.5C 75.1189,53.2663 72.4523,58.2663 68.5,62.5C 67.3608,59.9963 66.6941,57.3297 66.5,54.5C 66.6646,51.4816 66.498,48.4816 66,45.5C 63.7545,44.2054 62.2545,44.872 61.5,47.5C 60.5,47.5 59.5,47.5 58.5,47.5C 58.5567,42.4688 57.5567,37.8021 55.5,33.5C 50.1667,33.5 44.8333,33.5 39.5,33.5C 34.5,33.5 29.5,33.5 24.5,33.5C 24.6107,32.8826 24.944,32.3826 25.5,32C 31.0158,31.8267 36.3491,31.3267 41.5,30.5C 41.5,28.8333 41.5,27.1667 41.5,25.5C 46.8243,21.0165 52.3243,16.6832 58,12.5C 63.3858,16.7284 68.8858,20.7284 74.5,24.5 Z"/></g>
<g><path style="opacity:0.678" fill="#f1cead" d="M 67.5,12.5 C 69.664,14.822 71.3307,17.4887 72.5,20.5C 68.9123,18.6653 67.2456,15.9987 67.5,12.5 Z"/></g>
<g><path style="opacity:1" fill="#8d4d5e" d="M 39.5,33.5 C 44.8333,33.5 50.1667,33.5 55.5,33.5C 55.5,33.8333 55.5,34.1667 55.5,34.5C 50.5,34.5 45.5,34.5 40.5,34.5C 40.5,37.1667 40.5,39.8333 40.5,42.5C 39.5233,39.7131 39.19,36.7131 39.5,33.5 Z"/></g>
<g><path style="opacity:1" fill="#c54a44" d="M 24.5,33.5 C 29.5,33.5 34.5,33.5 39.5,33.5C 39.19,36.7131 39.5233,39.7131 40.5,42.5C 40.1936,45.3854 40.5269,48.0521 41.5,50.5C 41.5,53.8333 41.5,57.1667 41.5,60.5C 29.4498,60.7926 17.4498,60.4593 5.5,59.5C 4.5592,57.9505 3.89254,56.2838 3.5,54.5C 4.10951,48.1846 4.44285,41.8513 4.5,35.5C 10.7496,33.5411 17.4163,32.8745 24.5,33.5 Z"/></g>
<g><path style="opacity:1" fill="#b74b41" d="M 12.5,35.5 C 20.9839,34.507 29.6506,34.1736 38.5,34.5C 38.5272,41.1856 38.8605,47.8523 39.5,54.5C 26.7552,53.3091 17.7552,46.9758 12.5,35.5 Z"/></g>
<g><path style="opacity:1" fill="#293962" d="M 55.5,34.5 C 55.9071,38.203 56.5737,41.8697 57.5,45.5C 57.315,46.5837 56.9817,47.5837 56.5,48.5C 56.5,49.8333 56.5,51.1667 56.5,52.5C 58.2018,54.8002 58.8685,57.4669 58.5,60.5C 57.1667,60.5 55.8333,60.5 54.5,60.5C 54.5,58.8333 54.5,57.1667 54.5,55.5C 52.8333,55.5 51.1667,55.5 49.5,55.5C 49.5,53.8333 49.5,52.1667 49.5,50.5C 46.8333,50.5 44.1667,50.5 41.5,50.5C 40.5269,48.0521 40.1936,45.3854 40.5,42.5C 40.5,39.8333 40.5,37.1667 40.5,34.5C 45.5,34.5 50.5,34.5 55.5,34.5 Z"/></g>
<g><path style="opacity:1" fill="#d66f6a" d="M 55.5,33.5 C 57.5567,37.8021 58.5567,42.4688 58.5,47.5C 58.1583,48.3382 57.4916,48.6716 56.5,48.5C 56.9817,47.5837 57.315,46.5837 57.5,45.5C 56.5737,41.8697 55.9071,38.203 55.5,34.5C 55.5,34.1667 55.5,33.8333 55.5,33.5 Z"/></g>
<g><path style="opacity:0.645" fill="#e89049" d="M 77.5,37.5 C 77.5,39.1667 77.5,40.8333 77.5,42.5C 76.5489,43.9187 76.2155,45.5853 76.5,47.5C 74.5977,44.6627 73.931,41.3293 74.5,37.5C 75.5,37.5 76.5,37.5 77.5,37.5 Z"/></g>
<g><path style="opacity:0.9" fill="#8197e0" d="M -0.5,32.5 C -0.166667,32.5 0.166667,32.5 0.5,32.5C 0.339822,34.1992 0.506489,35.8659 1,37.5C 1.81595,36.1772 2.98261,35.5106 4.5,35.5C 4.44285,41.8513 4.10951,48.1846 3.5,54.5C 1.93482,52.4907 0.934823,50.1573 0.5,47.5C 2.30794,46.0821 2.97461,44.0821 2.5,41.5C 1.5,41.5 0.5,41.5 -0.5,41.5C -0.5,38.5 -0.5,35.5 -0.5,32.5 Z"/></g>
<g><path style="opacity:0.784" fill="#dbe6f8" d="M -0.5,41.5 C 0.5,41.5 1.5,41.5 2.5,41.5C 2.97461,44.0821 2.30794,46.0821 0.5,47.5C 0.737305,46.209 0.403972,45.209 -0.5,44.5C -0.5,43.5 -0.5,42.5 -0.5,41.5 Z"/></g>
<g><path style="opacity:1" fill="#7f97de" d="M 66.5,54.5 C 64.8333,54.5 63.1667,54.5 61.5,54.5C 62.1667,53.8333 62.8333,53.1667 63.5,52.5C 62.7375,51.7321 61.7375,51.2321 60.5,51C 61.5,50.1667 62.5,49.3333 63.5,48.5C 63.0431,47.7025 62.3764,47.3691 61.5,47.5C 62.2545,44.872 63.7545,44.2054 66,45.5C 66.498,48.4816 66.6646,51.4816 66.5,54.5 Z"/></g>
<g><path style="opacity:1" fill="#de974b" d="M 58.5,47.5 C 59.5,47.5 60.5,47.5 61.5,47.5C 62.3764,47.3691 63.0431,47.7025 63.5,48.5C 62.5,49.3333 61.5,50.1667 60.5,51C 61.7375,51.2321 62.7375,51.7321 63.5,52.5C 62.1667,52.5 60.8333,52.5 59.5,52.5C 58.5,52.5 57.5,52.5 56.5,52.5C 56.5,51.1667 56.5,49.8333 56.5,48.5C 57.4916,48.6716 58.1583,48.3382 58.5,47.5 Z"/></g>
<g><path style="opacity:1" fill="#e09137" d="M 41.5,50.5 C 44.1667,50.5 46.8333,50.5 49.5,50.5C 49.5,52.1667 49.5,53.8333 49.5,55.5C 51.1667,55.5 52.8333,55.5 54.5,55.5C 54.5,57.1667 54.5,58.8333 54.5,60.5C 52.1667,60.5 49.8333,60.5 47.5,60.5C 47.1667,53.8333 46.8333,53.8333 46.5,60.5C 44.8333,60.5 43.1667,60.5 41.5,60.5C 41.5,57.1667 41.5,53.8333 41.5,50.5 Z"/></g>
<g><path style="opacity:0.965" fill="#354a86" d="M 61.5,54.5 C 63.1667,54.5 64.8333,54.5 66.5,54.5C 66.6941,57.3297 67.3608,59.9963 68.5,62.5C 68.1667,63.5 67.5,64.1667 66.5,64.5C 66.5386,63.2438 66.0386,62.2438 65,61.5C 64.4954,63.5183 63.9954,65.5183 63.5,67.5C 63.5,68.1667 63.1667,68.5 62.5,68.5C 62.5,67.5 62.5,66.5 62.5,65.5C 62.4476,61.8019 62.1143,58.1352 61.5,54.5 Z"/></g>
<g><path style="opacity:1" fill="#e0c1af" d="M 59.5,52.5 C 60.8333,52.5 62.1667,52.5 63.5,52.5C 62.8333,53.1667 62.1667,53.8333 61.5,54.5C 62.1143,58.1352 62.4476,61.8019 62.5,65.5C 61.8333,65.5 61.1667,65.5 60.5,65.5C 59.4715,64.2126 59.8048,63.0459 61.5,62C 60.6394,58.8632 59.9728,55.6965 59.5,52.5 Z"/></g>
<g><path style="opacity:0.966" fill="#a34943" d="M 56.5,52.5 C 57.5,52.5 58.5,52.5 59.5,52.5C 59.9728,55.6965 60.6394,58.8632 61.5,62C 59.8048,63.0459 59.4715,64.2126 60.5,65.5C 59.791,66.404 58.791,66.7373 57.5,66.5C 56.0087,63.9093 53.6753,62.9093 50.5,63.5C 47.8333,63.5 45.1667,63.5 42.5,63.5C 42.7148,65.1788 42.0481,66.1788 40.5,66.5C 39.0384,65.5423 37.7051,64.3756 36.5,63C 34.9343,62.235 33.6009,62.4017 32.5,63.5C 29.8333,63.5 27.1667,63.5 24.5,63.5C 22.1667,63.5 19.8333,63.5 17.5,63.5C 17.7373,64.791 17.404,65.791 16.5,66.5C 14.8333,66.5 13.1667,66.5 11.5,66.5C 9.27333,64.3932 7.27333,62.0599 5.5,59.5C 17.4498,60.4593 29.4498,60.7926 41.5,60.5C 43.1667,60.5 44.8333,60.5 46.5,60.5C 46.8333,53.8333 47.1667,53.8333 47.5,60.5C 49.8333,60.5 52.1667,60.5 54.5,60.5C 55.8333,60.5 57.1667,60.5 58.5,60.5C 58.8685,57.4669 58.2018,54.8002 56.5,52.5 Z"/></g>
<g><path style="opacity:1" fill="#82b177" d="M 24.5,63.5 C 24.5,65.1667 24.5,66.8333 24.5,68.5C 21.5,68.5 18.5,68.5 15.5,68.5C 15.8333,67.8333 16.1667,67.1667 16.5,66.5C 17.404,65.791 17.7373,64.791 17.5,63.5C 19.8333,63.5 22.1667,63.5 24.5,63.5 Z"/></g>
<g><path style="opacity:1" fill="#d7c6b6" d="M 24.5,63.5 C 27.1667,63.5 29.8333,63.5 32.5,63.5C 32.8153,67.8004 35.1486,69.467 39.5,68.5C 43.8333,68.5 48.1667,68.5 52.5,68.5C 53.8333,68.5 55.1667,68.5 56.5,68.5C 58.5,68.5 60.5,68.5 62.5,68.5C 62.5,69.1667 62.1667,69.5 61.5,69.5C 46.1667,69.5 30.8333,69.5 15.5,69.5C 14.8333,69.5 14.5,69.1667 14.5,68.5C 14.8333,68.5 15.1667,68.5 15.5,68.5C 18.5,68.5 21.5,68.5 24.5,68.5C 24.5,66.8333 24.5,65.1667 24.5,63.5 Z"/></g>
<g><path style="opacity:1" fill="#86b07c" d="M 50.5,63.5 C 50.3915,65.5138 51.0582,67.1805 52.5,68.5C 48.1667,68.5 43.8333,68.5 39.5,68.5C 39.8333,67.8333 40.1667,67.1667 40.5,66.5C 42.0481,66.1788 42.7148,65.1788 42.5,63.5C 45.1667,63.5 47.8333,63.5 50.5,63.5 Z"/></g>
<g><path style="opacity:1" fill="#283962" d="M 50.5,63.5 C 53.6753,62.9093 56.0087,63.9093 57.5,66.5C 57.1667,67.1667 56.8333,67.8333 56.5,68.5C 55.1667,68.5 53.8333,68.5 52.5,68.5C 51.0582,67.1805 50.3915,65.5138 50.5,63.5 Z"/></g>
<g><path style="opacity:1" fill="#d9c6be" d="M 66.5,64.5 C 65.8333,65.8333 64.8333,66.8333 63.5,67.5C 63.9954,65.5183 64.4954,63.5183 65,61.5C 66.0386,62.2438 66.5386,63.2438 66.5,64.5 Z"/></g>
<g><path style="opacity:0.72" fill="#534155" d="M 11.5,66.5 C 13.1667,66.5 14.8333,66.5 16.5,66.5C 16.1667,67.1667 15.8333,67.8333 15.5,68.5C 15.1667,68.5 14.8333,68.5 14.5,68.5C 13.2905,68.0679 12.2905,67.4013 11.5,66.5 Z"/></g>
<g><path style="opacity:1" fill="#3a4874" d="M 40.5,66.5 C 40.1667,67.1667 39.8333,67.8333 39.5,68.5C 35.1486,69.467 32.8153,67.8004 32.5,63.5C 33.6009,62.4017 34.9343,62.235 36.5,63C 37.7051,64.3756 39.0384,65.5423 40.5,66.5 Z"/></g>
<g><path style="opacity:1" fill="#7ea77b" d="M 60.5,65.5 C 61.1667,65.5 61.8333,65.5 62.5,65.5C 62.5,66.5 62.5,67.5 62.5,68.5C 60.5,68.5 58.5,68.5 56.5,68.5C 56.8333,67.8333 57.1667,67.1667 57.5,66.5C 58.791,66.7373 59.791,66.404 60.5,65.5 Z"/></g>
<g><path style="opacity:0.897" fill="#fefffe" d="M 15.5,69.5 C 30.8333,69.5 46.1667,69.5 61.5,69.5C 55.8058,73.73 49.4724,76.3967 42.5,77.5C 39.8333,77.5 37.1667,77.5 34.5,77.5C 27.5276,76.3967 21.1942,73.73 15.5,69.5 Z"/></g>
</svg>
