<?xml version="1.0" encoding="UTF-8"?>
<!DOCTYPE svg PUBLIC "-//W3C//DTD SVG 1.1//EN" "http://www.w3.org/Graphics/SVG/1.1/DTD/svg11.dtd">
<svg xmlns="http://www.w3.org/2000/svg" version="1.1" width="27px" height="23px" style="shape-rendering:geometricPrecision; text-rendering:geometricPrecision; image-rendering:optimizeQuality; fill-rule:evenodd; clip-rule:evenodd" xmlns:xlink="http://www.w3.org/1999/xlink">
<g><path style="opacity:0.891" fill="#fefffe" d="M 26.5,10.5 C 26.5,11.1667 26.5,11.8333 26.5,12.5C 25.1667,12.5 23.8333,12.5 22.5,12.5C 22.5,15.8333 22.5,19.1667 22.5,22.5C 20.1667,22.5 17.8333,22.5 15.5,22.5C 14.612,19.9455 14.2786,17.2788 14.5,14.5C 13.5,14.5 12.5,14.5 11.5,14.5C 11.7214,17.2788 11.388,19.9455 10.5,22.5C 8.5,22.5 6.5,22.5 4.5,22.5C 3.58627,19.272 3.25293,15.9387 3.5,12.5C 2.5,12.5 1.5,12.5 0.5,12.5C 0.2965,10.6096 0.963167,9.10963 2.5,8C 5.46276,6.03936 8.12942,3.70602 10.5,1C 12.1667,0.333333 13.8333,0.333333 15.5,1C 18.8249,4.6473 22.4915,7.81397 26.5,10.5 Z"/></g>
</svg>
