<?xml version="1.0" encoding="UTF-8"?>
<!DOCTYPE svg PUBLIC "-//W3C//DTD SVG 1.1//EN" "http://www.w3.org/Graphics/SVG/1.1/DTD/svg11.dtd">
<svg xmlns="http://www.w3.org/2000/svg" version="1.1" width="29px" height="29px" style="shape-rendering:geometricPrecision; text-rendering:geometricPrecision; image-rendering:optimizeQuality; fill-rule:evenodd; clip-rule:evenodd" xmlns:xlink="http://www.w3.org/1999/xlink">
<g><path style="opacity:0.848" fill="#fefffe" d="M 0.5,-0.5 C 6.16667,-0.5 11.8333,-0.5 17.5,-0.5C 19.4718,2.17893 19.8052,5.01226 18.5,8C 17.5509,8.61723 16.7175,8.45057 16,7.5C 16.2904,3.91059 14.7904,2.41059 11.5,3C 12.1481,9.11249 12.8147,15.2792 13.5,21.5C 14.8333,19.1667 16.1667,16.8333 17.5,14.5C 18.086,14.7093 18.586,15.0426 19,15.5C 21.0415,21.6184 18.8748,24.9518 12.5,25.5C 11.8075,26.5178 11.1408,27.5178 10.5,28.5C 9.5,28.5 8.5,28.5 7.5,28.5C 5.064,27.129 2.39733,26.129 -0.5,25.5C -0.5,17.1667 -0.5,8.83333 -0.5,0.5C 0.166667,0.5 0.5,0.166667 0.5,-0.5 Z"/></g>
<g><path style="opacity:0.798" fill="#fefffe" d="M 28.5,10.5 C 28.5,11.1667 28.5,11.8333 28.5,12.5C 26.7041,13.7927 25.0375,15.2927 23.5,17C 22.552,17.4828 21.552,17.6495 20.5,17.5C 20.5,16.1667 20.5,14.8333 20.5,13.5C 18.0225,13.9492 16.0225,13.2825 14.5,11.5C 16.0225,9.71745 18.0225,9.05078 20.5,9.5C 20.5,8.16667 20.5,6.83333 20.5,5.5C 21.552,5.35055 22.552,5.51722 23.5,6C 25.0375,7.70733 26.7041,9.20733 28.5,10.5 Z"/></g>
</svg>
