<?xml version="1.0" encoding="UTF-8"?>
<!DOCTYPE svg PUBLIC "-//W3C//DTD SVG 1.1//EN" "http://www.w3.org/Graphics/SVG/1.1/DTD/svg11.dtd">
<svg xmlns="http://www.w3.org/2000/svg" version="1.1" width="26px" height="29px" style="shape-rendering:geometricPrecision; text-rendering:geometricPrecision; image-rendering:optimizeQuality; fill-rule:evenodd; clip-rule:evenodd" xmlns:xlink="http://www.w3.org/1999/xlink">
<g><path style="opacity:0.848" fill="#fefffe" d="M -0.5,-0.5 C 7.16667,-0.5 14.8333,-0.5 22.5,-0.5C 22.3339,5.17645 22.5006,10.8431 23,16.5C 23.8518,17.5707 24.6851,18.5707 25.5,19.5C 25.5,21.1667 25.5,22.8333 25.5,24.5C 24.5116,25.795 23.5116,27.1283 22.5,28.5C 20.5,28.5 18.5,28.5 16.5,28.5C 11.0247,27.5111 5.358,27.1778 -0.5,27.5C -0.5,18.1667 -0.5,8.83333 -0.5,-0.5 Z M 17.5,18.5 C 22.448,18.6209 22.448,19.6209 17.5,21.5C 16.8333,21.3333 16.1667,21.1667 15.5,21C 16.3805,20.2917 17.0472,19.4584 17.5,18.5 Z M 18.5,25.5 C 20.5041,24.3272 22.0041,22.6605 23,20.5C 23.4172,23.2842 22.2505,25.2842 19.5,26.5C 18.8933,26.3764 18.56,26.0431 18.5,25.5 Z"/></g>
</svg>
