<?xml version="1.0" encoding="UTF-8"?>
<!DOCTYPE svg PUBLIC "-//W3C//DTD SVG 1.1//EN" "http://www.w3.org/Graphics/SVG/1.1/DTD/svg11.dtd">
<svg xmlns="http://www.w3.org/2000/svg" version="1.1" width="78px" height="78px" style="shape-rendering:geometricPrecision; text-rendering:geometricPrecision; image-rendering:optimizeQuality; fill-rule:evenodd; clip-rule:evenodd" xmlns:xlink="http://www.w3.org/1999/xlink">
<g><path style="opacity:0.926" fill="#fefdfd" d="M 32.5,-0.5 C 36.8333,-0.5 41.1667,-0.5 45.5,-0.5C 62.5,3.83333 73.1667,14.5 77.5,31.5C 77.5,36.1667 77.5,40.8333 77.5,45.5C 75.9923,50.8506 73.659,55.8506 70.5,60.5C 67.9528,59.0664 65.6195,57.3998 63.5,55.5C 65.3863,54.6394 67.2196,53.6394 69,52.5C 69.4998,42.172 69.6665,31.8387 69.5,21.5C 69.67,20.1779 69.3366,19.0113 68.5,18C 65.9289,16.5462 63.2622,15.3795 60.5,14.5C 58.1515,12.659 55.4848,11.3257 52.5,10.5C 49.3394,7.7496 45.6727,5.7496 41.5,4.5C 32.2917,9.02103 23.1251,13.6877 14,18.5C 13.1741,30.0076 13.3407,41.3409 14.5,52.5C 16.5,53.8333 18.5,55.1667 20.5,56.5C 18.1932,57.6534 15.8599,58.8201 13.5,60C 12.5494,60.7175 12.3828,61.5509 13,62.5C 22.1486,67.6553 31.3152,72.6553 40.5,77.5C 38.5,77.5 36.5,77.5 34.5,77.5C 8.50505,71.5548 -2.66162,55.2215 1,28.5C 5.98845,12.7696 16.4884,3.10295 32.5,-0.5 Z"/></g>
<g><path style="opacity:1" fill="#f4cd93" d="M 52.5,10.5 C 43.0247,15.7386 33.3581,20.7386 23.5,25.5C 20.492,24.5798 17.6587,23.2465 15,21.5C 14.5002,31.828 14.3335,42.1613 14.5,52.5C 13.3407,41.3409 13.1741,30.0076 14,18.5C 23.1251,13.6877 32.2917,9.02103 41.5,4.5C 45.6727,5.7496 49.3394,7.7496 52.5,10.5 Z"/></g>
<g><path style="opacity:1" fill="#5f3b34" d="M 52.5,10.5 C 55.4848,11.3257 58.1515,12.659 60.5,14.5C 50.6687,19.2485 41.002,24.2485 31.5,29.5C 31.1667,29.5 30.8333,29.5 30.5,29.5C 28.2872,28.2271 25.9538,27.2271 23.5,26.5C 23.5,26.1667 23.5,25.8333 23.5,25.5C 33.3581,20.7386 43.0247,15.7386 52.5,10.5 Z"/></g>
<g><path style="opacity:1" fill="#f4cc92" d="M 60.5,14.5 C 63.2622,15.3795 65.9289,16.5462 68.5,18C 69.3366,19.0113 69.67,20.1779 69.5,21.5C 60.1667,25.8333 50.8333,30.1667 41.5,34.5C 37.8487,33.3411 34.5154,31.6744 31.5,29.5C 41.002,24.2485 50.6687,19.2485 60.5,14.5 Z"/></g>
<g><path style="opacity:1" fill="#f1b776" d="M 23.5,25.5 C 23.5,25.8333 23.5,26.1667 23.5,26.5C 23.1725,31.544 23.5059,36.544 24.5,41.5C 26.4134,42.373 28.2467,43.373 30,44.5C 30.4993,39.5111 30.6659,34.5111 30.5,29.5C 30.8333,29.5 31.1667,29.5 31.5,29.5C 34.5154,31.6744 37.8487,33.3411 41.5,34.5C 40.8581,45.2208 41.5247,55.5541 43.5,65.5C 42.3991,66.5983 41.0657,66.765 39.5,66C 33.4235,62.2951 27.0901,59.1284 20.5,56.5C 18.5,55.1667 16.5,53.8333 14.5,52.5C 14.3335,42.1613 14.5002,31.828 15,21.5C 17.6587,23.2465 20.492,24.5798 23.5,25.5 Z"/></g>
<g><path style="opacity:1" fill="#dd9761" d="M 69.5,21.5 C 69.6665,31.8387 69.4998,42.172 69,52.5C 67.2196,53.6394 65.3863,54.6394 63.5,55.5C 56.8333,58.8333 50.1667,62.1667 43.5,65.5C 41.5247,55.5541 40.8581,45.2208 41.5,34.5C 50.8333,30.1667 60.1667,25.8333 69.5,21.5 Z"/></g>
<g><path style="opacity:1" fill="#452823" d="M 23.5,26.5 C 25.9538,27.2271 28.2872,28.2271 30.5,29.5C 30.6659,34.5111 30.4993,39.5111 30,44.5C 28.2467,43.373 26.4134,42.373 24.5,41.5C 23.5059,36.544 23.1725,31.544 23.5,26.5 Z"/></g>
<g><path style="opacity:1" fill="#533b2c" d="M 64.5,43.5 C 68.3181,45.6976 68.4848,48.3643 65,51.5C 64.8047,49.7928 64.8047,48.1261 65,46.5C 64.6667,46.1667 64.3333,45.8333 64,45.5C 63.5774,46.9561 62.7441,47.4561 61.5,47C 62.365,45.6412 63.365,44.4745 64.5,43.5 Z"/></g>
<g><path style="opacity:1" fill="#c5c1bd" d="M 15.5,46.5 C 20.7989,46.849 22.9655,49.5157 22,54.5C 20,53.1667 18,51.8333 16,50.5C 15.51,49.2068 15.3433,47.8734 15.5,46.5 Z"/></g>
<g><path style="opacity:1" fill="#4e382a" d="M 60.5,48.5 C 62.1207,48.7869 63.1207,49.7869 63.5,51.5C 62.675,52.3857 61.675,52.719 60.5,52.5C 60.5,51.1667 60.5,49.8333 60.5,48.5 Z"/></g>
<g><path style="opacity:0.997" fill="#e8ecee" d="M 63.5,55.5 C 65.6195,57.3998 67.9528,59.0664 70.5,60.5C 63.6619,70.2534 54.3286,75.92 42.5,77.5C 41.8333,77.5 41.1667,77.5 40.5,77.5C 31.3152,72.6553 22.1486,67.6553 13,62.5C 12.3828,61.5509 12.5494,60.7175 13.5,60C 15.8599,58.8201 18.1932,57.6534 20.5,56.5C 27.0901,59.1284 33.4235,62.2951 39.5,66C 41.0657,66.765 42.3991,66.5983 43.5,65.5C 50.1667,62.1667 56.8333,58.8333 63.5,55.5 Z"/></g>
<g><path style="opacity:1" fill="#695139" d="M 29.5,52.5 C 30.3019,53.9516 30.8019,55.6183 31,57.5C 31.2492,56.376 31.7492,55.376 32.5,54.5C 32.8333,55 33.1667,55.5 33.5,56C 33.6504,60.3802 31.9838,60.7135 28.5,57C 29.3802,55.6439 29.7135,54.1439 29.5,52.5 Z"/></g>
<g><path style="opacity:1" fill="#29211c" d="M 35.5,55.5 C 37.2726,56.3143 37.7726,57.6476 37,59.5C 35.8118,58.4366 35.3118,57.1033 35.5,55.5 Z"/></g>
</svg>
