<?xml version="1.0" encoding="UTF-8"?>
<!DOCTYPE svg PUBLIC "-//W3C//DTD SVG 1.1//EN" "http://www.w3.org/Graphics/SVG/1.1/DTD/svg11.dtd">
<svg xmlns="http://www.w3.org/2000/svg" version="1.1" width="78px" height="77px" style="shape-rendering:geometricPrecision; text-rendering:geometricPrecision; image-rendering:optimizeQuality; fill-rule:evenodd; clip-rule:evenodd" xmlns:xlink="http://www.w3.org/1999/xlink">
<g><path style="opacity:0.936" fill="#a0c4e8" d="M 30.5,-0.5 C 35.8333,-0.5 41.1667,-0.5 46.5,-0.5C 56.7154,2.05011 64.7154,7.71678 70.5,16.5C 65.5,14.5 60.5,12.5 55.5,10.5C 44.4767,10.3157 33.4767,10.6491 22.5,11.5C 22.5,13.1667 22.5,14.8333 22.5,16.5C 16.9838,19.3433 13.3172,23.6766 11.5,29.5C 10.4427,30.206 10.7761,30.5393 12.5,30.5C 11.791,31.404 10.791,31.7373 9.5,31.5C 9.44001,30.9569 9.10667,30.6236 8.5,30.5C 7.61432,31.325 7.28099,32.325 7.5,33.5C 5.90097,33.2322 4.56764,33.5655 3.5,34.5C 3.5,37.1667 3.5,39.8333 3.5,42.5C 5.29152,42.634 6.95819,42.3007 8.5,41.5C 8.58948,44.7254 7.92282,47.7254 6.5,50.5C 6.4858,52.6113 7.15247,54.4447 8.5,56C 7.57051,57.0769 6.90384,58.2436 6.5,59.5C 2.64271,54.0518 0.309378,48.0518 -0.5,41.5C -0.5,39.1667 -0.5,36.8333 -0.5,34.5C 2.41469,16.2525 12.748,4.58584 30.5,-0.5 Z"/></g>
<g><path style="opacity:1" fill="#513963" d="M 55.5,10.5 C 56.122,24.7448 55.4554,38.7448 53.5,52.5C 52.5,52.5 51.5,52.5 50.5,52.5C 50.7828,51.7109 51.2828,51.0442 52,50.5C 52.9581,39.0733 52.4581,27.74 50.5,16.5C 41.3418,15.1782 32.3418,15.1782 23.5,16.5C 23.1667,16.5 22.8333,16.5 22.5,16.5C 22.5,14.8333 22.5,13.1667 22.5,11.5C 33.4767,10.6491 44.4767,10.3157 55.5,10.5 Z"/></g>
<g><path style="opacity:1" fill="#b77847" d="M 23.5,12.5 C 25.288,12.2148 26.9547,12.5481 28.5,13.5C 27.6667,13.8333 26.8333,14.1667 26,14.5C 24.6244,14.3158 23.7911,13.6491 23.5,12.5 Z"/></g>
<g><path style="opacity:1" fill="#fba334" d="M 22.5,16.5 C 22.8333,16.5 23.1667,16.5 23.5,16.5C 31.1739,16.3336 38.8406,16.5003 46.5,17C 40.5119,20.8055 37.5119,26.3055 37.5,33.5C 36.8333,33.5 36.5,33.1667 36.5,32.5C 36.5,31.8333 36.5,31.1667 36.5,30.5C 28.3501,29.5073 20.0168,29.1739 11.5,29.5C 13.3172,23.6766 16.9838,19.3433 22.5,16.5 Z"/></g>
<g><path style="opacity:1" fill="#281c39" d="M 72.5,19.5 C 74.9545,23.2034 76.6211,27.2034 77.5,31.5C 77.5,35.8333 77.5,40.1667 77.5,44.5C 76.7148,46.3736 76.0482,48.3736 75.5,50.5C 70.4889,50.6659 65.4889,50.4993 60.5,50C 59.9747,49.3076 59.3081,48.8076 58.5,48.5C 57.1667,37.5 57.1667,26.5 58.5,15.5C 62.9526,16.6749 67.6193,18.0082 72.5,19.5 Z"/></g>
<g><path style="opacity:1" fill="#e36f22" d="M 23.5,16.5 C 32.3418,15.1782 41.3418,15.1782 50.5,16.5C 52.4581,27.74 52.9581,39.0733 52,50.5C 51.2828,51.0442 50.7828,51.7109 50.5,52.5C 48.2776,52.178 46.4443,52.8446 45,54.5C 44.7931,58.0894 44.2931,61.5894 43.5,65C 41.1902,65.4966 38.8568,65.6633 36.5,65.5C 36.3238,57.5289 35.9905,49.5289 35.5,41.5C 35.5,38.5 35.5,35.5 35.5,32.5C 35.8333,32.5 36.1667,32.5 36.5,32.5C 36.5,33.1667 36.8333,33.5 37.5,33.5C 37.5119,26.3055 40.5119,20.8055 46.5,17C 38.8406,16.5003 31.1739,16.3336 23.5,16.5 Z"/></g>
<g><path style="opacity:1" fill="#8a5e3b" d="M 11.5,29.5 C 20.0168,29.1739 28.3501,29.5073 36.5,30.5C 28.6204,30.6454 20.6204,30.6454 12.5,30.5C 10.7761,30.5393 10.4427,30.206 11.5,29.5 Z"/></g>
<g><path style="opacity:1" fill="#251a33" d="M 12.5,30.5 C 20.6204,30.6454 28.6204,30.6454 36.5,30.5C 36.5,31.1667 36.5,31.8333 36.5,32.5C 36.1667,32.5 35.8333,32.5 35.5,32.5C 26.6506,32.8264 17.9839,32.493 9.5,31.5C 10.791,31.7373 11.791,31.404 12.5,30.5 Z"/></g>
<g><path style="opacity:1" fill="#7c86a0" d="M 9.5,31.5 C 17.9839,32.493 26.6506,32.8264 35.5,32.5C 35.5,35.5 35.5,38.5 35.5,41.5C 34.8333,41.5 34.1667,41.5 33.5,41.5C 28.6367,41.8195 23.97,41.4861 19.5,40.5C 16.272,41.4137 12.9387,41.7471 9.5,41.5C 9.16667,41.5 8.83333,41.5 8.5,41.5C 9.47016,37.0685 7.8035,34.7352 3.5,34.5C 4.56764,33.5655 5.90097,33.2322 7.5,33.5C 7.28099,32.325 7.61432,31.325 8.5,30.5C 9.10667,30.6236 9.44001,30.9569 9.5,31.5 Z"/></g>
<g><path style="opacity:1" fill="#d2e6f8" d="M 19.5,40.5 C 16.4115,39.2154 13.0781,38.5488 9.5,38.5C 9.5,36.8333 9.5,35.1667 9.5,33.5C 17.8333,33.5 26.1667,33.5 34.5,33.5C 34.5,35.8333 34.5,38.1667 34.5,40.5C 32.2532,40.0847 30.0865,39.4181 28,38.5C 25.4105,39.9863 22.5772,40.6529 19.5,40.5 Z"/></g>
<g><path style="opacity:1" fill="#251b36" d="M 3.5,34.5 C 7.8035,34.7352 9.47016,37.0685 8.5,41.5C 6.95819,42.3007 5.29152,42.634 3.5,42.5C 3.5,39.8333 3.5,37.1667 3.5,34.5 Z"/></g>
<g><path style="opacity:1" fill="#3e2d43" d="M 42.5,30.5 C 42.4609,32.3588 43.2942,33.6921 45,34.5C 45.49,33.2068 45.6567,31.8734 45.5,30.5C 46.6517,34.0535 46.485,37.7202 45,41.5C 42.8333,42.3333 41.3333,43.8333 40.5,46C 39.552,46.4828 38.552,46.6495 37.5,46.5C 37.5,42.1667 37.5,37.8333 37.5,33.5C 37.8333,33.5 38.1667,33.5 38.5,33.5C 38.1081,36.7216 38.6081,39.7216 40,42.5C 40.2963,39.2942 40.7963,36.1275 41.5,33C 40.8235,31.3167 39.8235,31.1501 38.5,32.5C 39.1834,30.8235 40.5168,30.1568 42.5,30.5 Z"/></g>
<g><path style="opacity:1" fill="#b8cbe2" d="M 42.5,30.5 C 43.5,30.5 44.5,30.5 45.5,30.5C 45.6567,31.8734 45.49,33.2068 45,34.5C 43.2942,33.6921 42.4609,32.3588 42.5,30.5 Z"/></g>
<g><path style="opacity:1" fill="#c0d5eb" d="M 38.5,33.5 C 38.5,33.1667 38.5,32.8333 38.5,32.5C 39.8235,31.1501 40.8235,31.3167 41.5,33C 40.7963,36.1275 40.2963,39.2942 40,42.5C 38.6081,39.7216 38.1081,36.7216 38.5,33.5 Z"/></g>
<g><path style="opacity:1" fill="#251a33" d="M 19.5,40.5 C 23.97,41.4861 28.6367,41.8195 33.5,41.5C 25.5,42.8333 17.5,42.8333 9.5,41.5C 12.9387,41.7471 16.272,41.4137 19.5,40.5 Z"/></g>
<g><path style="opacity:1" fill="#64363c" d="M 44.5,47.5 C 46.337,47.6395 46.6704,48.3061 45.5,49.5C 44.7025,49.0431 44.3691,48.3764 44.5,47.5 Z"/></g>
<g><path style="opacity:1" fill="#ef9b37" d="M 8.5,41.5 C 8.83333,41.5 9.16667,41.5 9.5,41.5C 17.5,42.8333 25.5,42.8333 33.5,41.5C 34.1667,41.5 34.8333,41.5 35.5,41.5C 35.9905,49.5289 36.3238,57.5289 36.5,65.5C 28.1399,64.5511 19.8065,64.5511 11.5,65.5C 10.8333,65.5 10.5,65.1667 10.5,64.5C 10.5,62.5 10.5,60.5 10.5,58.5C 8.82124,58.2852 7.82124,58.9519 7.5,60.5C 6.83333,60.5 6.5,60.1667 6.5,59.5C 6.90384,58.2436 7.57051,57.0769 8.5,56C 7.15247,54.4447 6.4858,52.6113 6.5,50.5C 7.92282,47.7254 8.58948,44.7254 8.5,41.5 Z"/></g>
<g><path style="opacity:1" fill="#c6d1e0" d="M 24.5,57.5 C 24.5,58.1667 24.5,58.8333 24.5,59.5C 21.8333,59.5 19.1667,59.5 16.5,59.5C 16.5,58.8333 16.5,58.1667 16.5,57.5C 19.0613,56.2329 21.728,56.2329 24.5,57.5 Z"/></g>
<g><path style="opacity:1" fill="#3f2734" d="M 24.5,57.5 C 21.728,56.2329 19.0613,56.2329 16.5,57.5C 15.325,57.719 14.325,57.3857 13.5,56.5C 18.8023,55.3372 24.1357,55.1705 29.5,56C 28.0953,57.2692 26.4286,57.7692 24.5,57.5 Z"/></g>
<g><path style="opacity:1" fill="#4e355b" d="M 32.5,49.5 C 34.8379,50.6484 34.6712,51.9817 32,53.5C 31.5,53.3333 31,53.1667 30.5,53C 31.305,51.8873 31.9717,50.7206 32.5,49.5 Z"/></g>
<g><path style="opacity:1" fill="#422d50" d="M 16.5,46.5 C 18.9479,47.4731 21.6146,47.8064 24.5,47.5C 26.717,46.6314 29.0504,46.298 31.5,46.5C 31.4506,49.0991 30.4506,51.2658 28.5,53C 23.5,53.6667 18.5,53.6667 13.5,53C 12.324,51.0858 11.324,51.2524 10.5,53.5C 6.80702,51.5804 6.80702,50.2471 10.5,49.5C 10.5,48.5 10.5,47.5 10.5,46.5C 12.5,46.5 14.5,46.5 16.5,46.5 Z"/></g>
<g><path style="opacity:1" fill="#fdd59c" d="M 24.5,47.5 C 21.6146,47.8064 18.9479,47.4731 16.5,46.5C 17.6216,45.8442 18.9549,45.5108 20.5,45.5C 22.3328,45.5854 23.6661,46.2521 24.5,47.5 Z"/></g>
<g><path style="opacity:0.627" fill="#cfd9e0" d="M 10.5,64.5 C 8.73758,63.7377 7.73758,62.4044 7.5,60.5C 7.82124,58.9519 8.82124,58.2852 10.5,58.5C 10.5,60.5 10.5,62.5 10.5,64.5 Z"/></g>
<g><path style="opacity:1" fill="#5f413a" d="M 16.5,59.5 C 19.1667,59.5 21.8333,59.5 24.5,59.5C 25.552,59.3505 26.552,59.5172 27.5,60C 23.3161,61.7618 18.9827,61.9284 14.5,60.5C 14.9569,59.7025 15.6236,59.3691 16.5,59.5 Z"/></g>
<g><path style="opacity:1" fill="#d9d4cb" d="M 31.5,58.5 C 32.8333,58.5 34.1667,58.5 35.5,58.5C 36.4015,62.2407 35.0681,64.2407 31.5,64.5C 31.5,62.5 31.5,60.5 31.5,58.5 Z"/></g>
<g><path style="opacity:0.988" fill="#332341" d="M 55.5,10.5 C 60.5,12.5 65.5,14.5 70.5,16.5C 71.9063,16.9731 72.573,17.9731 72.5,19.5C 67.6193,18.0082 62.9526,16.6749 58.5,15.5C 57.1667,26.5 57.1667,37.5 58.5,48.5C 59.3081,48.8076 59.9747,49.3076 60.5,50C 65.4889,50.4993 70.4889,50.6659 75.5,50.5C 73.2182,57.4032 69.2182,63.0698 63.5,67.5C 47.9216,69.3616 32.255,70.0283 16.5,69.5C 14.246,68.8763 12.5794,67.543 11.5,65.5C 19.8065,64.5511 28.1399,64.5511 36.5,65.5C 38.8568,65.6633 41.1902,65.4966 43.5,65C 44.2931,61.5894 44.7931,58.0894 45,54.5C 46.4443,52.8446 48.2776,52.178 50.5,52.5C 51.5,52.5 52.5,52.5 53.5,52.5C 55.4554,38.7448 56.122,24.7448 55.5,10.5 Z"/></g>
<g><path style="opacity:1" fill="#e46c19" d="M 53.5,52.5 C 57.1667,52.5 60.8333,52.5 64.5,52.5C 64.6646,55.5184 64.498,58.5184 64,61.5C 61.5393,62.2181 59.0393,62.8847 56.5,63.5C 55.9036,59.6678 54.9036,56.0011 53.5,52.5 Z"/></g>
<g><path style="opacity:0.897" fill="#9abbe0" d="M 63.5,67.5 C 63.0472,68.4584 62.3805,69.2917 61.5,70C 56.8627,72.4889 52.196,74.6555 47.5,76.5C 41.8333,76.5 36.1667,76.5 30.5,76.5C 25.3173,75.242 20.6507,72.9087 16.5,69.5C 32.255,70.0283 47.9216,69.3616 63.5,67.5 Z"/></g>
</svg>
